<svg xmlns="http://www.w3.org/2000/svg" viewBox="0 0 30 30">
  <path d="M11 3C9.895 3 9 3.895 9 5C9 5.017 9.0058594 5.0337812 9.0058594 5.0507812C8.8378594 5.0317812 8.673 5 8.5 5C6.015 5 4 7.015 4 9.5C4 9.971 4.0915625 10.415797 4.2265625 10.841797C3.4355625 11.369797 2.8117813 12.121 2.4257812 13L8 13L8 10.722656C7.405 10.375656 7 9.738 7 9C7 7.895 7.895 7 9 7C10.105 7 11 7.895 11 9C11 9.738 10.595 10.375656 10 10.722656L10 14C10 14.553 9.552 15 9 15L2 15C2 16.735 2.8845625 18.261203 4.2265625 19.158203C4.0915625 19.584203 4 20.029 4 20.5C4 22.83 5.777875 24.722125 8.046875 24.953125C8.260875 26.116125 9.275 27 10.5 27C11.881 27 13 25.881 13 24.5L13 21L10.722656 21C10.375656 21.595 9.738 22 9 22C7.895 22 7 21.105 7 20C7 18.895 7.895 18 9 18C9.738 18 10.375656 18.405 10.722656 19L13 19L13 5C13 3.895 12.105 3 11 3 z M 17 3C15.895 3 15 3.895 15 5L15 9L17.277344 9C17.624344 8.405 18.262 8 19 8C20.105 8 21 8.895 21 10C21 11.105 20.105 12 19 12C18.262 12 17.624344 11.595 17.277344 11L15 11L15 24.5C15 25.881 16.119 27 17.5 27C18.725 27 19.739125 26.116125 19.953125 24.953125C21.715125 24.774125 23.223531 23.629 23.769531 22L19 22C18.448 22 18 21.553 18 21L18 18.722656C17.405 18.376656 17 17.739 17 17C17 15.895 17.895 15 19 15C20.105 15 21 15.895 21 17C21 17.738 20.595 18.375656 20 18.722656L20 20L23.962891 20C23.866891 19.064 23.599609 18.662109 23.599609 18.662109C25.010609 18.043109 26 16.637 26 15C26 13.265 25.115437 11.738797 23.773438 10.841797C23.908438 10.415797 24 9.971 24 9.5C24 7.015 21.985 5 19.5 5C19.327 5 19.162141 5.0317812 18.994141 5.0507812C18.994141 5.0337812 19 5.017 19 5C19 3.895 18.105 3 17 3 z" fill="#FFFFFF" />
</svg>