<svg xmlns="http://www.w3.org/2000/svg" viewBox="0 0 64 64">
  <path d="M25.722656 2.0058594C25.460141 2.0159414 25.195391 2.0405781 24.931641 2.0800781C22.454641 2.4490781 20.292828 4.2339531 19.423828 6.6269531C19.236828 7.1379531 19.111828 7.6595 19.048828 8.1875C18.127828 7.9605 17.164219 7.9389062 16.199219 8.1289062C13.683219 8.6269062 11.648719 10.650062 11.136719 13.164062C10.931719 14.166063 10.957031 15.171906 11.207031 16.128906C8.2390313 16.729906 6 19.358 6 22.5C6 23.614 6.2862656 24.698203 6.8222656 25.658203C6.8192656 25.659203 6.8174531 25.661109 6.8144531 25.662109C6.5034531 25.797109 6.2041094 25.955859 5.9121094 26.130859C5.8391094 26.173859 5.7673125 26.216719 5.6953125 26.261719C5.4283125 26.432719 5.1669219 26.614359 4.9199219 26.818359C4.8159219 26.903359 4.7220469 26.997891 4.6230469 27.087891C4.5290469 27.172891 4.4317969 27.25375 4.3417969 27.34375C4.3277969 27.35775 4.3235469 27.377578 4.3105469 27.392578C2.8745469 28.845578 2 30.824 2 33C2 35.249 2.9670937 37.402156 4.6210938 38.910156C4.6160938 38.922156 4.6124219 38.935266 4.6074219 38.947266C4.5714219 39.034266 4.5447188 39.123891 4.5117188 39.212891C4.4287187 39.435891 4.3559687 39.661625 4.2929688 39.890625C4.2769687 39.948625 4.2522812 40.002547 4.2382812 40.060547C4.2332813 40.080547 4.238375 40.099141 4.234375 40.119141C4.085375 40.733141 4 41.364 4 42C4 45.342 6.0515625 48.273172 9.1015625 49.451172C9.0995625 49.460172 9.1016094 49.468563 9.0996094 49.476562C9.0366094 49.808563 9 50.15 9 50.5C9 53.28 11.073313 55.584313 13.820312 55.945312C15.389312 59.592313 18.997 62 23 62C25.624 62 28.104422 60.990203 29.982422 59.158203C31.095422 58.072203 32.904578 58.072203 34.017578 59.158203C35.896578 60.990203 38.376 62 41 62C44.998 62 48.603828 59.598984 50.173828 55.958984C52.889828 55.624984 55 53.305 55 50.5C55 50.146 54.966437 49.796172 54.898438 49.451172C57.948437 48.273172 60 45.342 60 42C60 41.694 59.976406 41.389938 59.941406 41.085938C59.928406 40.968938 59.908625 40.852328 59.890625 40.736328C59.862625 40.558328 59.828109 40.383031 59.787109 40.207031C59.755109 40.066031 59.720641 39.926109 59.681641 39.787109C59.640641 39.645109 59.593922 39.505234 59.544922 39.365234C59.492922 39.215234 59.443812 39.064969 59.382812 38.917969L59.378906 38.908203C61.032906 37.402203 62 35.249 62 33C62 30.288 60.650344 27.874875 58.527344 26.421875C58.506344 26.404875 58.496609 26.382188 58.474609 26.367188C58.435609 26.341188 58.392516 26.321875 58.353516 26.296875C58.225516 26.213875 58.090031 26.139453 57.957031 26.064453C57.771031 25.958453 57.583625 25.858531 57.390625 25.769531C57.317625 25.735531 57.251734 25.692156 57.177734 25.660156C57.712734 24.699156 58 23.614 58 22.5C58 19.358 55.760969 16.729906 52.792969 16.128906C53.042969 15.171906 53.068281 14.168016 52.863281 13.166016C52.350281 10.651016 50.315781 8.6269062 47.800781 8.1289062C47.378781 8.0459062 46.956109 8.0098125 46.537109 8.0078125C46.523109 8.0068125 46.513 8 46.5 8C46.479 8 46.460453 8.0039062 46.439453 8.0039062C46.162453 8.0059063 45.887234 8.0235469 45.615234 8.0605469C45.537234 8.0715469 45.461766 8.0914688 45.384766 8.1054688C45.239766 8.1304688 45.093172 8.1505469 44.951172 8.1855469C44.888172 7.6575469 44.764125 7.1379531 44.578125 6.6269531C43.709125 4.2329531 41.545359 2.447125 39.068359 2.078125C36.959359 1.764125 34.855922 2.3993594 33.294922 3.8183594C32.570922 4.4773594 31.433031 4.4783594 30.707031 3.8183594C29.340281 2.5776094 27.560266 1.9352852 25.722656 2.0058594 z M 25.792969 4.0058594C27.110254 3.9556836 28.385703 4.4144062 29.361328 5.3007812C30.841328 6.6447813 33.158672 6.6447812 34.638672 5.3007812C35.753672 4.2877813 37.262437 3.8355469 38.773438 4.0605469C40.535438 4.3225469 42.074266 5.5975469 42.697266 7.3105469C42.899266 7.8675469 42.998094 8.4414844 42.996094 9.0214844C42.012094 9.6504844 41.19525 10.547391 40.65625 11.650391C40.41425 12.146391 40.619234 12.744328 41.115234 12.986328C41.257234 13.055328 41.407687 13.089844 41.554688 13.089844C41.924687 13.089844 42.280125 12.882344 42.453125 12.527344C42.894125 11.625344 43.604078 10.929094 44.455078 10.496094C44.669078 10.387094 44.889281 10.295656 45.113281 10.222656C45.124281 10.218656 45.133531 10.214938 45.144531 10.210938C45.868531 9.9809375 46.640156 9.9397969 47.410156 10.091797C49.144156 10.434797 50.548344 11.831406 50.902344 13.566406C51.112344 14.596406 50.973953 15.627828 50.501953 16.548828C50.341953 16.860828 50.355016 17.23425 50.541016 17.53125C50.727016 17.83025 51.068297 18.014859 51.404297 18.005859L51.5 18C53.981 18 56 20.019 56 22.5C56 23.44 55.688578 24.341516 55.142578 25.103516C53.807578 24.911516 52.429156 25.038531 51.160156 25.519531C50.644156 25.715531 50.384078 26.292594 50.580078 26.808594C50.775078 27.325594 51.355094 27.582672 51.871094 27.388672C52.985094 26.964672 54.217 26.898016 55.375 27.166016C55.675 27.236016 55.962234 27.332359 56.240234 27.443359C56.315234 27.473359 56.387938 27.506062 56.460938 27.539062C56.680937 27.637062 56.893656 27.748094 57.097656 27.871094C57.160656 27.909094 57.224156 27.942422 57.285156 27.982422C58.944156 29.061422 60 30.917 60 33C60 34.566 59.398938 36.018 58.335938 37.125C57.763937 36.384 57.065188 35.732797 56.242188 35.216797C55.775188 34.925797 55.158281 35.065203 54.863281 35.533203C54.570281 36.001203 54.711688 36.617156 55.179688 36.910156C56.063688 37.463156 56.769906 38.216797 57.253906 39.091797C57.257906 39.099797 57.257719 39.109187 57.261719 39.117188C57.623719 39.777187 57.858125 40.502047 57.953125 41.248047C57.983125 41.495047 58 41.746 58 42L48 42L48 35.857422C49.72 35.410422 51 33.858 51 32C51 29.794 49.206 28 47 28C44.794 28 43 29.794 43 32C43 33.858 44.28 35.410422 46 35.857422L46 42C46 43.103 46.897 44 48 44L57.658203 44C57.000203 45.866 55.439828 47.330266 53.423828 47.822266C53.139828 47.891266 52.902531 48.079844 52.769531 48.339844C52.637531 48.599844 52.624328 48.903828 52.736328 49.173828C52.911328 49.600828 53 50.047 53 50.5C53 52.43 51.431016 54 49.541016 54L49.539062 54C49.081063 53.975 48.684156 54.243063 48.535156 54.664062C47.518156 57.536062 44.962 59.544875 42 59.921875L42 49.857422C43.72 49.410422 45 47.858 45 46C45 43.794 43.206 42 41 42C38.794 42 37 43.794 37 46C37 47.858 38.28 49.410422 40 49.857422L40 59.931641C38.277 59.716641 36.676063 58.957563 35.414062 57.726562C34.473062 56.808563 33.236 56.349609 32 56.349609C30.764 56.349609 29.526938 56.807563 28.585938 57.726562C27.324938 58.956562 25.723 59.716641 24 59.931641L24 53C24 52.448 23.553 52 23 52C22.447 52 22 52.448 22 53L22 59.921875C19.038 59.544875 16.480844 57.536063 15.464844 54.664062C15.316844 54.246063 14.903797 53.981 14.466797 54C12.552797 53.981 11 52.418 11 50.5C11 50.267 11.024359 50.038359 11.068359 49.818359C11.112359 49.601359 11.177672 49.388687 11.263672 49.179688C11.786672 47.903687 13.038 47 14.5 47C14.784 47 15.064937 47.033609 15.335938 47.099609C15.873938 47.231609 16.413922 46.903188 16.544922 46.367188C16.676922 45.830188 16.3495 45.290203 15.8125 45.158203C15.3865 45.053203 14.944 45 14.5 45C12.542 45 10.823609 46.032125 9.8496094 47.578125C7.5536094 46.699125 6 44.511 6 42C6 41.499 6.0635 41.000578 6.1875 40.517578C6.2505 40.268578 6.3298281 40.024109 6.4238281 39.787109C6.4668281 39.678109 6.5242187 39.57575 6.5742188 39.46875C6.8792187 38.81675 7.2895 38.214125 7.8125 37.703125C8.2085 37.318125 8.2150781 36.684062 7.8300781 36.289062C7.4460781 35.895063 6.8110156 35.886484 6.4160156 36.271484C6.1430156 36.537484 5.8921094 36.820141 5.6621094 37.119141C4.6001094 36.014141 4 34.565 4 33C4 31.298 4.7100469 29.752344 5.8730469 28.652344C5.9410469 28.587344 6.0110312 28.523891 6.0820312 28.462891C6.2890312 28.284891 6.5052812 28.115797 6.7382812 27.966797C6.7682813 27.946797 6.7990781 27.929156 6.8300781 27.910156C7.3790781 27.571156 7.9903906 27.310203 8.6503906 27.158203C8.6533906 27.157203 8.6552031 27.15625 8.6582031 27.15625C9.0932031 27.05725 9.542 27 10 27C10.608 27 11.209156 27.090531 11.785156 27.269531C12.314156 27.436531 12.873109 27.138328 13.037109 26.611328C13.201109 26.084328 12.905906 25.523375 12.378906 25.359375C11.609906 25.120375 10.81 25 10 25C9.611 25 9.2286094 25.037797 8.8496094 25.091797C8.3086094 24.333797 8 23.436 8 22.5C8 20.019 10.019375 18 12.484375 18C12.504375 18.001 12.57475 18.005859 12.59375 18.005859C12.91775 18.005859 13.270078 17.83025 13.455078 17.53125C13.641078 17.23325 13.656094 16.860828 13.496094 16.548828C13.023094 15.627828 12.885703 14.595453 13.095703 13.564453C13.449703 11.830453 14.853891 10.434797 16.587891 10.091797C17.623891 9.8877969 18.651312 10.030812 19.570312 10.507812C19.705313 10.578812 19.851047 10.608281 19.998047 10.613281L19.998047 15.142578C18.278047 15.589578 16.998047 17.142 16.998047 19C16.998047 21.206 18.792047 23 20.998047 23C23.204047 23 24.998047 21.206 24.998047 19C24.998047 17.142 23.718047 15.589578 21.998047 15.142578L21.998047 6.0292969C22.777047 4.9832969 23.941562 4.2485938 25.226562 4.0585938C25.415688 4.0304687 25.604785 4.0130273 25.792969 4.0058594 z M 31 8C30.447 8 30 8.448 30 9C30 9.552 30.447 10 31 10L33 10C33.553 10 34 9.552 34 9C34 8.448 33.553 8 33 8L31 8 z M 31 13C30.447 13 30 13.448 30 14C30 14.552 30.447 15 31 15L33 15C33.553 15 34 14.552 34 14C34 13.448 33.553 13 33 13L31 13 z M 42 15C40.141 15 38.589578 16.28 38.142578 18L31 18C30.447 18 30 18.448 30 19C30 19.552 30.447 20 31 20L38.142578 20C38.589578 21.72 40.141 23 42 23C44.206 23 46 21.206 46 19C46 16.794 44.206 15 42 15 z M 21 17C22.103 17 23 17.897 23 19C23 20.103 22.103 21 21 21C19.897 21 19 20.103 19 19C19 17.897 19.897 17 21 17 z M 42 17C43.103 17 44 17.897 44 19C44 20.103 43.103 21 42 21C40.897 21 40 20.103 40 19C40 17.897 40.897 17 42 17 z M 31 23C30.447 23 30 23.448 30 24C30 24.552 30.447 25 31 25L33 25C33.553 25 34 24.552 34 24C34 23.448 33.553 23 33 23L31 23 z M 25 24C24.447 24 24 24.448 24 25L24 28C24 29.103 24.897 30 26 30L36 30L36 34C36 35.103 36.897 36 38 36L40 36L40 39C40 39.552 40.447 40 41 40C41.553 40 42 39.552 42 39L42 36C42 34.897 41.103 34 40 34L38 34L38 30C38 28.897 37.103 28 36 28L26 28L26 25C26 24.448 25.553 24 25 24 z M 17 28C14.794 28 13 29.794 13 32C13 33.858 14.28 35.410422 16 35.857422L16 38C16 39.103 16.897 40 18 40L22 40L22 42.142578C20.28 42.589578 19 44.142 19 46C19 48.206 20.794 50 23 50C25.206 50 27 48.206 27 46C27 44.142 25.72 42.589578 24 42.142578L24 40C24 38.897 23.103 38 22 38L18 38L18 35.857422C19.72 35.410422 21 33.858 21 32C21 29.794 19.206 28 17 28 z M 17 30C18.103 30 19 30.897 19 32C19 33.103 18.103 34 17 34C15.897 34 15 33.103 15 32C15 30.897 15.897 30 17 30 z M 47 30C48.103 30 49 30.897 49 32C49 33.103 48.103 34 47 34C45.897 34 45 33.103 45 32C45 30.897 45.897 30 47 30 z M 31 33C30.447 33 30 33.448 30 34C30 34.552 30.447 35 31 35L33 35C33.553 35 34 34.552 34 34C34 33.448 33.553 33 33 33L31 33 z M 31 38C30.447 38 30 38.448 30 39C30 39.552 30.447 40 31 40L33 40C33.553 40 34 39.552 34 39C34 38.448 33.553 38 33 38L31 38 z M 31 43C30.447 43 30 43.448 30 44C30 44.552 30.447 45 31 45L33 45C33.553 45 34 44.552 34 44C34 43.448 33.553 43 33 43L31 43 z M 23 44C24.103 44 25 44.897 25 46C25 47.103 24.103 48 23 48C21.897 48 21 47.103 21 46C21 44.897 21.897 44 23 44 z M 41 44C42.103 44 43 44.897 43 46C43 47.103 42.103 48 41 48C39.897 48 39 47.103 39 46C39 44.897 39.897 44 41 44 z M 31 48C30.447 48 30 48.448 30 49C30 49.552 30.447 50 31 50L33 50C33.553 50 34 49.552 34 49C34 48.448 33.553 48 33 48L31 48 z M 31 53C30.447 53 30 53.448 30 54C30 54.552 30.447 55 31 55L33 55C33.553 55 34 54.552 34 54C34 53.448 33.553 53 33 53L31 53 z" fill="#FFFFFF" />
</svg>