<svg xmlns="http://www.w3.org/2000/svg" viewBox="0 0 32 32">
  <path d="M5 5L5 27L27 27L27 5 Z M 7 7L15.5625 7L13.25 9.3125C12.863281 9.132813 12.449219 9 12 9C10.355469 9 9 10.355469 9 12C9 13.644531 10.355469 15 12 15C13.644531 15 15 13.644531 15 12C15 11.550781 14.867188 11.136719 14.6875 10.75L18.4375 7L25 7L25 23.5625L22.6875 21.25C22.867188 20.863281 23 20.449219 23 20C23 18.355469 21.644531 17 20 17C18.355469 17 17 18.355469 17 20C17 21.644531 18.355469 23 20 23C20.449219 23 20.863281 22.867188 21.25 22.6875L23.5625 25L7 25 Z M 20 9C18.355469 9 17 10.355469 17 12C17 12.449219 17.132813 12.863281 17.3125 13.25L13.25 17.3125C12.863281 17.132813 12.449219 17 12 17C10.355469 17 9 18.355469 9 20C9 21.644531 10.355469 23 12 23C13.644531 23 15 21.644531 15 20C15 19.550781 14.867188 19.136719 14.6875 18.75L18.75 14.6875C19.136719 14.867188 19.550781 15 20 15C21.644531 15 23 13.644531 23 12C23 10.355469 21.644531 9 20 9 Z M 12 11C12.5625 11 13 11.4375 13 12C13 12.5625 12.5625 13 12 13C11.4375 13 11 12.5625 11 12C11 11.4375 11.4375 11 12 11 Z M 20 11C20.5625 11 21 11.4375 21 12C21 12.5625 20.5625 13 20 13C19.4375 13 19 12.5625 19 12C19 11.4375 19.4375 11 20 11 Z M 12 19C12.5625 19 13 19.4375 13 20C13 20.5625 12.5625 21 12 21C11.4375 21 11 20.5625 11 20C11 19.4375 11.4375 19 12 19 Z M 20 19C20.5625 19 21 19.4375 21 20C21 20.5625 20.5625 21 20 21C19.4375 21 19 20.5625 19 20C19 19.4375 19.4375 19 20 19Z" fill="#FFFFFF" />
</svg>