<svg xmlns="http://www.w3.org/2000/svg" viewBox="0 0 50 50">
  <path d="M7 4C5.3550302 4 4 5.3550302 4 7L4 43.123047C4 44.768017 5.3550302 46.123047 7 46.123047L31.357422 46.125C37.270309 46.125 41.912109 46.126953 41.912109 46.126953 A 1.0001 1.0001 0 0 0 42.630859 44.431641L36.421875 38.007812 A 1.0001 1.0001 0 0 0 35.359375 37.761719C34.734392 37.98942 34.039366 38.066297 33.294922 37.941406C31.668244 37.667141 30.311549 36.293112 30.052734 34.662109C29.614927 31.899367 31.888967 29.620377 34.650391 30.050781C36.285346 30.305651 37.66356 31.663621 37.939453 33.292969C38.06558 34.035895 37.988803 34.734797 37.761719 35.363281 A 1.0001 1.0001 0 0 0 37.996094 36.410156C37.943214 36.357276 38.103887 36.521871 38.28125 36.705078C38.458613 36.888286 38.706676 37.143912 39.001953 37.449219C39.592508 38.059832 40.371077 38.865812 41.146484 39.667969C42.697299 41.272281 44.236328 42.863281 44.236328 42.863281 A 1.0001 1.0001 0 0 0 45.955078 42.169922L45.953125 7.0019531C45.953125 5.3574942 44.598698 4.0019531 42.953125 4.0019531L29.955078 4 A 1.0001 1.0001 0 0 0 29.246094 4.2949219L19.994141 13.591797 A 1.0001 1.0001 0 0 0 19.761719 14.638672C19.989001 15.264695 20.065002 15.962706 19.939453 16.707031C19.664374 18.334649 18.288294 19.690903 16.65625 19.947266C13.895295 20.381793 11.620374 18.109424 12.050781 15.349609C12.305602 13.715761 13.66393 12.336388 15.292969 12.060547C16.035895 11.93442 16.73426 12.011417 17.361328 12.238281 A 1.0001 1.0001 0 0 0 18.40625 12.007812C18.49742 11.917582 18.83886 11.571469 19.429688 10.976562C20.020515 10.381657 20.79864 9.5975473 21.574219 8.8164062C23.125376 7.2541243 24.664062 5.7050781 24.664062 5.7050781 A 1.0001 1.0001 0 0 0 23.955078 4L7 4 z M 7 6L21.552734 6C20.997402 6.5593625 20.855877 6.7015908 20.154297 7.4082031C19.37875 8.1893121 18.600469 8.9735779 18.009766 9.5683594C17.59019 9.9908315 17.446523 10.134539 17.291016 10.291016C16.539744 10.120763 15.777957 9.9488533 14.958984 10.087891C12.454023 10.512049 10.465398 12.532864 10.074219 15.041016C9.4466259 19.065201 12.941751 22.557301 16.966797 21.923828C19.472752 21.530191 21.489189 19.541445 21.912109 17.039062C22.050282 16.219894 21.878329 15.457552 21.707031 14.705078L30.371094 6L42.953125 6.0019531C43.517552 6.0019531 43.953125 6.4384121 43.953125 7.0019531L43.955078 39.695312C43.40512 39.126292 43.272001 38.989095 42.583984 38.277344C41.808517 37.475125 41.030242 36.669449 40.439453 36.058594C40.144059 35.753166 39.896555 35.496164 39.71875 35.3125C39.71205 35.3056 39.713351 35.307301 39.707031 35.300781C39.879122 34.54652 40.051734 33.78142 39.912109 32.958984C39.488003 30.454332 37.468029 28.465349 34.958984 28.074219C30.932408 27.446623 27.439932 30.947351 28.078125 34.974609C28.475311 37.477607 30.461568 39.490375 32.962891 39.912109 A 1.0001 1.0001 0 0 0 32.962891 39.914062C33.775612 40.050407 34.534429 39.877942 35.283203 39.708984L39.556641 44.126953C38.077788 44.126684 35.950917 44.125 31.357422 44.125L7 44.123047C6.4349698 44.123047 6 43.688077 6 43.123047L6 7C6 6.4349698 6.4349698 6 7 6 z M 34 10C30.698375 10 28 12.698375 28 16C28 16.470587 28.132544 16.906331 28.236328 17.349609L17.349609 28.236328C16.906705 28.132069 16.472388 28 16 28C12.698375 28 10 30.698375 10 34C10 37.301625 12.698375 40 16 40C19.301625 40 22 37.301625 22 34C22 33.528276 21.867196 33.094223 21.763672 32.652344L32.650391 21.765625C33.09296 21.8688 33.526697 22 34 22C37.301625 22 40 19.301625 40 16C40 12.698375 37.301625 10 34 10 z M 34 12C36.220375 12 38 13.779625 38 16C38 18.220375 36.220375 20 34 20C33.519057 20 33.060101 19.91669 32.630859 19.763672 A 1.0001 1.0001 0 0 0 31.589844 19.998047L19.996094 31.591797 A 1.0001 1.0001 0 0 0 19.761719 32.638672C19.915138 33.062972 20 33.519057 20 34C20 36.220375 18.220375 38 16 38C13.779625 38 12 36.220375 12 34C12 31.779625 13.779625 30 16 30C16.480943 30 16.937959 30.0844 17.361328 30.238281 A 1.0001 1.0001 0 0 0 18.408203 30.005859L30.003906 18.410156 A 1.0001 1.0001 0 0 0 30.238281 17.363281C30.083975 16.936342 30 16.479669 30 16C30 13.779625 31.779625 12 34 12 z M 16 14 A 2 2 0 0 0 14 16 A 2 2 0 0 0 16 18 A 2 2 0 0 0 18 16 A 2 2 0 0 0 16 14 z M 34 14 A 2 2 0 0 0 32 16 A 2 2 0 0 0 34 18 A 2 2 0 0 0 36 16 A 2 2 0 0 0 34 14 z M 16 32 A 2 2 0 0 0 14 34 A 2 2 0 0 0 16 36 A 2 2 0 0 0 18 34 A 2 2 0 0 0 16 32 z M 34 32 A 2 2 0 0 0 32 34 A 2 2 0 0 0 34 36 A 2 2 0 0 0 36 34 A 2 2 0 0 0 34 32 z" fill="#010161" />
</svg>