<svg xmlns="http://www.w3.org/2000/svg" viewBox="0 0 128 128">
  <path d="M14 1C6.8 1 1 6.8 1 14L1 28L1 114C1 121.2 6.8 127 14 127L114 127C121.2 127 127 121.2 127 114L127 14C127 6.8 121.2 1 114 1L14 1 z M 14 7L114 7C117.9 7 121 10.1 121 14L121 29L7 29L7 14C7 10.1 10.1 7 14 7 z M 18 15C16.3 15 15 16.3 15 18C15 19.7 16.3 21 18 21L22 21C23.7 21 25 19.7 25 18C25 16.3 23.7 15 22 15L18 15 z M 34 15C32.3 15 31 16.3 31 18C31 19.7 32.3 21 34 21L38 21C39.7 21 41 19.7 41 18C41 16.3 39.7 15 38 15L34 15 z M 7 35L121 35L121 114C121 117.9 117.9 121 114 121L14 121C10.1 121 7 117.9 7 114L7 35 z M 72.099609 52.802734C70.918359 52.849609 69.850391 53.600781 69.400391 54.800781L52.900391 99.099609C52.300391 100.69961 53.099219 102.4 54.699219 103C54.999219 103.1 55.2 103.19922 55.5 103.19922C56.8 103.29922 58.099609 102.60078 58.599609 101.30078L75.099609 56.900391C75.699609 55.300391 74.900781 53.6 73.300781 53C72.900781 52.85 72.493359 52.787109 72.099609 52.802734 z M 81.962891 63.9375C81.200391 63.975 80.450391 64.300391 79.900391 64.900391C78.800391 66.100391 78.899609 67.999609 80.099609 69.099609L89.699219 77.900391L80.099609 86.699219C78.899609 87.899219 78.800391 89.799609 79.900391 91.099609C80.500391 91.799609 81.299609 92.099609 82.099609 92.099609C82.799609 92.099609 83.499609 91.900781 84.099609 91.300781L96.199219 80.199219C96.799219 79.599219 97.199219 78.8 97.199219 78C97.199219 77.2 96.799219 76.300781 96.199219 75.800781L84.099609 64.699219C83.499609 64.149219 82.725391 63.9 81.962891 63.9375 z M 46.037109 64.037109C45.274609 63.999609 44.500391 64.250781 43.900391 64.800781L31.800781 75.800781C31.200781 76.400781 30.800781 77.2 30.800781 78C30.800781 78.8 31.200781 79.699219 31.800781 80.199219L43.900391 91.300781C44.500391 91.800781 45.200391 92.099609 45.900391 92.099609C46.700391 92.099609 47.499609 91.799609 48.099609 91.099609C49.199609 89.899609 49.100391 88.000391 47.900391 86.900391L38.300781 78L47.900391 69.199219C49.100391 68.099219 49.199609 66.2 48.099609 65C47.549609 64.4 46.799609 64.074609 46.037109 64.037109 z" fill="#FFFFFF" />
</svg>