<svg xmlns="http://www.w3.org/2000/svg" viewBox="0 0 48 48">
  <path d="M19.005859 2.9667969C17.756641 2.9509062 16.297953 3.1887656 15.095703 4.2597656C13.861703 5.3597656 13.181297 7.0631719 13.029297 9.4511719C10.904297 10.255172 6.2048438 12.462797 4.5898438 16.716797C3.5178437 19.540797 3.9929062 22.654563 6.0039062 25.976562C5.6829063 27.006563 5.4960938 28.189156 5.4960938 29.535156C5.4960938 35.994156 9.9214531 38.876672 13.064453 39.763672C13.672453 44.978672 18.201422 45.019156 19.982422 45.035156L20.048828 45.035156C21.629828 45.035156 23.023625 44.519797 24.015625 43.591797L24 40C24 40 22.500766 42.035156 20.009766 42.035156C17.178766 42.035156 15.994141 41.517156 15.994141 38.535156C15.994141 37.789156 15.438219 37.154828 14.699219 37.048828C14.446219 37.012828 8.4941406 36.085156 8.4941406 29.535156C8.4941406 25.761156 10.315531 23.912453 12.019531 23.439453C12.340531 23.350453 12.660609 23.306641 12.974609 23.306641C14.251609 23.306641 15.436031 24.022641 16.207031 25.306641C16.633031 26.016641 17.555625 26.246312 18.265625 25.820312C18.975625 25.394313 19.205297 24.473672 18.779297 23.763672C17.119297 20.996672 14.15275 19.735828 11.21875 20.548828C10.04075 20.874828 8.7734219 21.610547 7.7324219 22.810547C6.9404219 20.963547 6.8246719 19.280062 7.3886719 17.789062C8.9136719 13.751062 14.84825 11.993562 14.90625 11.976562C15.55025 11.791562 15.994141 11.205156 15.994141 10.535156C15.994141 8.5331563 16.372844 7.1370469 17.089844 6.4980469C17.631844 6.0160469 18.472312 5.8673906 19.820312 6.0253906C21.111313 6.1743906 22.494141 7.1267344 22.494141 8.3027344L22.494141 34.082031C22.516141 33.987031 22.541359 33.892828 22.568359 33.798828C22.811359 31.034828 23.875203 28.507609 25.533203 26.474609L25.533203 8.3027344C25.533203 7.1257344 26.915078 6.1743906 28.205078 6.0253906C28.547078 5.9853906 28.857672 5.9667969 29.138672 5.9667969C29.961672 5.9667969 30.5335 6.1380469 30.9375 6.4980469C31.6545 7.1370469 32.033203 8.5331563 32.033203 10.535156C32.033203 11.203156 32.478141 11.791562 33.119141 11.976562C33.179141 11.994563 39.112672 13.751063 40.638672 17.789062C41.147672 19.136063 41.094094 20.643203 40.496094 22.283203C41.449094 22.620203 42.352359 23.058844 43.193359 23.589844C44.152359 21.158844 44.253359 18.852797 43.443359 16.716797C41.828359 12.462797 37.128906 10.255172 35.003906 9.4511719C34.851906 7.0621719 34.169547 5.3587656 32.935547 4.2597656C31.332547 2.8317656 29.274281 2.8839219 27.863281 3.0449219C26.462281 3.2079219 25.039625 3.8734375 24.015625 4.8984375C22.991625 3.8734375 21.568969 3.2079219 20.167969 3.0449219C19.815219 3.0046719 19.422266 2.9720937 19.005859 2.9667969 z M 19.050781 12.015625 A 1.50015 1.50015 0 0 0 17.541016 13.898438C17.541016 13.898438 17.649401 14.52087 17.466797 15.007812C17.284193 15.494756 17.096094 16.035156 14.996094 16.035156 A 1.50015 1.50015 0 1 0 14.996094 19.035156C17.896094 19.035156 19.707994 17.575557 20.275391 16.0625C20.842787 14.549443 20.451172 13.171875 20.451172 13.171875 A 1.50015 1.50015 0 0 0 19.050781 12.015625 z M 29.085938 12.015625 A 1.50015 1.50015 0 0 0 27.580078 13.171875C27.580078 13.171875 27.188463 14.549443 27.755859 16.0625C28.323256 17.575557 30.135156 19.035156 33.035156 19.035156 A 1.50015 1.50015 0 1 0 33.035156 16.035156C30.935156 16.035156 30.74901 15.494755 30.566406 15.007812C30.383803 14.520871 30.492188 13.898437 30.492188 13.898438 A 1.50015 1.50015 0 0 0 29.085938 12.015625 z M 36 24C35.413 24 34.838344 24.049531 34.277344 24.144531L33.931641 25.576172C33.394641 27.801172 31.105156 29.123609 28.910156 28.474609L27.705078 28.117188C26.981078 29.050187 26.401 30.110813 26 31.257812L26.894531 32.117188C28.529531 33.691187 28.529531 36.308813 26.894531 37.882812L26 38.742188C26.401 39.889187 26.980078 40.948812 27.705078 41.882812L28.910156 41.525391C31.105156 40.876391 33.394641 42.198828 33.931641 44.423828L34.277344 45.855469C34.838344 45.950469 35.414 46 36 46C36.587 46 37.161656 45.950469 37.722656 45.855469L38.068359 44.423828C38.605359 42.198828 40.894844 40.876391 43.089844 41.525391L44.294922 41.882812C45.018922 40.949813 45.599 39.889187 46 38.742188L45.105469 37.882812C43.470469 36.309812 43.470469 33.690188 45.105469 32.117188L46 31.257812C45.599 30.110813 45.019922 29.051187 44.294922 28.117188L43.089844 28.474609C40.894844 29.123609 38.605359 27.801172 38.068359 25.576172L37.722656 24.144531C37.161656 24.049531 36.587 24 36 24 z M 14.056641 28.972656C13.490067 28.977756 13.115234 29.080078 13.115234 29.080078 A 1.50015 1.50015 0 1 0 13.84375 31.990234C13.84375 31.990234 14.34525 31.895284 14.808594 32.126953C15.271937 32.358625 15.980469 32.86849 15.980469 35.535156 A 1.50015 1.50015 0 1 0 18.980469 35.535156C18.980469 32.201823 17.687047 30.211688 16.150391 29.443359C15.382062 29.059195 14.623215 28.967508 14.056641 28.972656 z M 36 32C37.657 32 39 33.343 39 35C39 36.657 37.657 38 36 38C34.343 38 33 36.657 33 35C33 33.343 34.343 32 36 32 z" fill="#010161" />
</svg>