<svg xmlns="http://www.w3.org/2000/svg" viewBox="0 0 32 32">
  <path d="M16 3C14.355469 3 13 4.355469 13 6C13 6.351563 13.074219 6.683594 13.1875 7L7.21875 7L7.03125 7.78125L3.03125 24.78125L3 24.875L3 27L29 27L29 24.875L28.96875 24.78125L24.96875 7.78125L24.78125 7L18.8125 7C18.925781 6.683594 19 6.351563 19 6C19 4.355469 17.644531 3 16 3 Z M 16 5C16.5625 5 17 5.4375 17 6C17 6.5625 16.5625 7 16 7C15.4375 7 15 6.5625 15 6C15 5.4375 15.4375 5 16 5 Z M 8.78125 9L23.21875 9L26.96875 25L5.03125 25 Z M 15 12L15 13L14.5 13C13.117188 13 12 14.117188 12 15.5C12 16.882813 13.117188 18 14.5 18L17.5 18C17.714844 18 18 18.285156 18 18.5C18 18.714844 17.714844 19 17.5 19L12 19L12 21L15 21L15 22L17 22L17 21L17.5 21C18.882813 21 20 19.882813 20 18.5C20 17.117188 18.882813 16 17.5 16L14.5 16C14.285156 16 14 15.714844 14 15.5C14 15.285156 14.285156 15 14.5 15L19 15L19 13L17 13L17 12Z" fill="#FFFFFF" />
</svg>