<svg xmlns="http://www.w3.org/2000/svg" viewBox="0 0 30 30">
  <path d="M15 14c-.73 0-1.41-.21-2-.56C12.41 13.79 11.73 14 11 14s-1.4-.21-1.99-.55C8.41 13.79 7.73 14 7 14s-1.4-.21-1.99-.55C4.42 13.8 3.73 14 3 14v11c0 1.1.89 2 2 2h12v-3.86c0-.01 0-.01 0-.02v-9.68C16.41 13.79 15.73 14 15 14zM13 23H7v-6h6V23zM26 6V5c0-1.11-.9-2-2-2H6C4.89 3 4 3.89 4 5v1l-3 4c0 1.1.89 2 2 2s2-.9 2-2l2-4h3l-1 4c0 1.1.9 2 2 2s2-.9 2-2V6h4v4c0 .49.17.93.47 1.28.5-.77 1.36-1.28 2.34-1.28H21l-1-4h3l2 4h4L26 6zM26.75 12h-5.5c-1.11 0-2.04.87-2.22 2C19.01 14.12 19 14.25 19 14.38v8.7c0 .01 0 .01 0 .02v3.52c0 1.3 1.02 2.38 2.25 2.38h5.5c1.23 0 2.25-1.08 2.25-2.38V23.1c0-.01 0-.01 0-.02v-8.7C29 13.08 27.98 12 26.75 12zM23 27c-.55 0-1-.45-1-1s.45-1 1-1h2c.55 0 1 .45 1 1s-.45 1-1 1H23z" fill="#050045" />
</svg>