<svg xmlns="http://www.w3.org/2000/svg" viewBox="0 0 48 48">
  <path d="M19.5 5.0195312C11.069404 5.0195312 4.2079576 11.780514 4.0175781 20.166016 A 1.50015 1.50015 0 0 0 4.015625 20.828125C4.1822336 29.225166 11.054236 36.019531 19.5 36.019531C23.494187 36.019531 27.128504 34.489341 29.878906 32L41.439453 43.560547 A 1.50015 1.50015 0 1 0 43.560547 41.439453L31.900391 29.779297C33.55903 27.563729 34.649239 24.901211 34.925781 22L42.5 22 A 1.50015 1.50015 0 1 0 42.5 19L27.371094 19L23.802734 12.755859 A 1.50015 1.50015 0 0 0 22.427734 12.001953 A 1.50015 1.50015 0 0 0 21.087891 12.996094L17.052734 24.294922L13.720703 19.628906 A 1.50015 1.50015 0 0 0 12.5 19L7.1015625 19C7.854781 12.817398 13.124721 8.0195312 19.5 8.0195312C24.8 8.0195312 29.340156 11.33 31.160156 16L34.330078 16C32.390078 9.65 26.48 5.0195312 19.5 5.0195312 z M 22.814453 17.076172L25.197266 21.244141 A 1.50015 1.50015 0 0 0 26.5 22L31.904297 22C31.167915 28.194002 25.888173 33.019531 19.5 33.019531C13.111827 33.019531 7.8320847 28.194002 7.0957031 22L11.728516 22L16.279297 28.371094 A 1.50015 1.50015 0 0 0 18.912109 28.003906L22.814453 17.076172 z" fill="#FFFFFF" />
</svg>