<svg xmlns="http://www.w3.org/2000/svg" viewBox="0 0 50 50">
  <path d="M25 2C12.316406 2 2 12.316406 2 25C2 37.683594 12.316406 48 25 48C37.683594 48 48 37.683594 48 25C48 12.316406 37.683594 2 25 2 Z M 18 18.3125C22.5 18.3125 23.3125 21.988281 23.3125 22.6875L21.1875 22.6875C21.085938 22.289063 20.699219 20.1875 18 20.1875C14.398438 20.1875 14.1875 24.492188 14.1875 25.09375C14.1875 28.59375 16.101563 30 18 30C20.5 30 21.5 28.398438 21.5 26.5L18.1875 26.5L18.1875 24.8125L23.5 24.8125L23.5 31.40625L22.09375 31.40625L21.8125 29.90625C21.210938 30.605469 20.101563 31.6875 18 31.6875C13.601563 31.6875 12 27.800781 12 25C12 23 13 18.3125 18 18.3125 Z M 32 18.3125C35.601563 18.3125 38 21.199219 38 25C38 28.398438 36 31.6875 32 31.6875C27.101563 31.6875 26 27.199219 26 25C26 20.199219 29.300781 18.3125 32 18.3125 Z M 32 20.09375C28.398438 20.09375 28.1875 24.398438 28.1875 25C28.1875 26.5 28.699219 29.90625 32 29.90625C34 29.90625 35.8125 28.300781 35.8125 25C35.8125 24.398438 35.699219 20.09375 32 20.09375Z" fill="#FFFFFF" />
</svg>