<svg xmlns="http://www.w3.org/2000/svg" viewBox="0 0 30 30">
  <path d="M15 3C12.239 3 10 5.239 10 8C10 10.048599 11.236088 11.805641 13 12.578125L13 25L15 27L17 25L17 24L16 23L17 22L16 21L17 20.001953L16 19L17 18L17 12.578125C18.763912 11.805641 20 10.048599 20 8C20 5.239 17.761 3 15 3 z M 15 5C15.552 5 16 5.448 16 6C16 6.552 15.552 7 15 7C14.448 7 14 6.552 14 6C14 5.448 14.448 5 15 5 z M 5 11 A 2 2 0 0 0 3 13 A 2 2 0 0 0 5 15 A 2 2 0 0 0 5.8847656 14.791016L7.4453125 15.832031 A 1.0001 1.0001 0 0 0 8 16L10 16 A 1.0001 1.0001 0 1 0 10 14L8.3027344 14L6.9941406 13.128906 A 2 2 0 0 0 7 13 A 2 2 0 0 0 5 11 z M 25 11 A 2 2 0 0 0 23 13 A 2 2 0 0 0 23.005859 13.128906L21.697266 14L20 14 A 1.0001 1.0001 0 1 0 20 16L22 16 A 1.0001 1.0001 0 0 0 22.554688 15.832031L24.115234 14.791016 A 2 2 0 0 0 25 15 A 2 2 0 0 0 27 13 A 2 2 0 0 0 25 11 z M 5 17 A 2 2 0 0 0 3 19 A 2 2 0 0 0 5 21 A 2 2 0 0 0 6.7304688 20L10 20 A 1.0001 1.0001 0 1 0 10 18L6.7285156 18 A 2 2 0 0 0 5 17 z M 25 17 A 2 2 0 0 0 23.269531 18L20 18 A 1.0001 1.0001 0 1 0 20 20L23.271484 20 A 2 2 0 0 0 25 21 A 2 2 0 0 0 27 19 A 2 2 0 0 0 25 17 z M 8 22 A 1.0001 1.0001 0 0 0 7.4453125 22.167969L5.8847656 23.208984 A 2 2 0 0 0 5 23 A 2 2 0 0 0 3 25 A 2 2 0 0 0 5 27 A 2 2 0 0 0 7 25 A 2 2 0 0 0 6.9941406 24.871094L8.3027344 24L10 24 A 1.0001 1.0001 0 1 0 10 22L8 22 z M 20 22 A 1.0001 1.0001 0 1 0 20 24L21.697266 24L23.005859 24.871094 A 2 2 0 0 0 23 25 A 2 2 0 0 0 25 27 A 2 2 0 0 0 27 25 A 2 2 0 0 0 25 23 A 2 2 0 0 0 24.115234 23.208984L22.554688 22.167969 A 1.0001 1.0001 0 0 0 22 22L20 22 z" fill="#0D009A" />
</svg>