<svg xmlns="http://www.w3.org/2000/svg" viewBox="0 0 50 50">
  <path d="M25 1 A 2.5 2.5 0 0 0 22.509766 3.2851562L7.2539062 12.119141 A 2.5 2.5 0 0 0 6.5 12 A 2.5 2.5 0 0 0 5 16.498047L5 33.503906 A 2.5 2.5 0 0 0 6.5 38 A 2.5 2.5 0 0 0 7.2558594 37.882812L22.513672 46.716797 A 2.5 2.5 0 0 0 25 49 A 2.5 2.5 0 0 0 27.490234 46.714844L42.746094 37.880859 A 2.5 2.5 0 0 0 43.5 38 A 2.5 2.5 0 0 0 45 33.501953L45 16.496094 A 2.5 2.5 0 0 0 43.5 12 A 2.5 2.5 0 0 0 42.744141 12.117188L27.486328 3.2832031 A 2.5 2.5 0 0 0 25 1 z M 22.271484 5.7363281L15.134766 18.130859L8.9960938 14.578125 A 2.5 2.5 0 0 0 8.8027344 13.533203L22.271484 5.7363281 z M 27.730469 5.7363281L41.197266 13.533203 A 2.5 2.5 0 0 0 41.001953 14.580078L34.867188 18.132812L27.730469 5.7363281 z M 24.460938 5.9394531 A 2.5 2.5 0 0 0 25 6 A 2.5 2.5 0 0 0 25.539062 5.9394531L33.134766 19.134766L26.480469 22.986328 A 2.5 2.5 0 0 0 25 22.5 A 2.5 2.5 0 0 0 23.521484 22.988281L16.865234 19.134766L24.460938 5.9394531 z M 8.1347656 16.390625L14.136719 19.865234L7 32.259766L7 16.949219 A 2.5 2.5 0 0 0 8.1347656 16.390625 z M 41.867188 16.390625 A 2.5 2.5 0 0 0 43 16.947266L43 32.261719L35.865234 19.865234L41.867188 16.390625 z M 15.867188 20.867188L22.519531 24.71875 A 2.5 2.5 0 0 0 24 27.289062L24 35L8.9472656 35 A 2.5 2.5 0 0 0 8.3867188 33.861328L15.867188 20.867188 z M 34.132812 20.867188L41.615234 33.861328 A 2.5 2.5 0 0 0 41.054688 35L26 35L26 27.289062 A 2.5 2.5 0 0 0 27.482422 24.71875L34.132812 20.867188 z M 9.7226562 37L24 37L24 44.210938 A 2.5 2.5 0 0 0 23.179688 44.789062L9.7226562 37 z M 26 37L40.277344 37L26.820312 44.789062 A 2.5 2.5 0 0 0 26 44.210938L26 37 z" fill="#FFFFFF" />
</svg>