<svg xmlns="http://www.w3.org/2000/svg" viewBox="0 0 50 50">
  <path d="M13 3C10.242188 3 8 5.242188 8 8C8 10.414063 9.722656 12.4375 12 12.90625L12 35.09375C12.328125 35.046875 12.660156 35 13 35C13.339844 35 13.671875 35.046875 14 35.09375L14 26.90625C16.300781 30.566406 20.367188 33 25 33L30.09375 33C30.046875 32.671875 30 32.339844 30 32C30 31.660156 30.046875 31.328125 30.09375 31L25 31C18.933594 31 14 26.066406 14 20L14 12.90625C16.277344 12.4375 18 10.414063 18 8C18 5.242188 15.757813 3 13 3 Z M 37 27C34.242188 27 32 29.242188 32 32C32 34.757813 34.242188 37 37 37C39.757813 37 42 34.757813 42 32C42 29.242188 39.757813 27 37 27 Z M 13 37C10.242188 37 8 39.242188 8 42C8 44.757813 10.242188 47 13 47C15.757813 47 18 44.757813 18 42C18 39.242188 15.757813 37 13 37Z" fill="#FFFFFF" />
</svg>