<svg xmlns="http://www.w3.org/2000/svg" viewBox="0 0 64 64">
  <path d="M13 0C9.141 0 6 3.141 6 7L6 57C6 60.859 9.141 64 13 64L35 64C38.859 64 42 60.859 42 57L42 50.896484C42 50.343484 41.553 49.896484 41 49.896484C40.447 49.896484 40 50.343484 40 50.896484L40 52L8 52L8 10L40 10L40 11C40 11.553 40.447 12 41 12C41.553 12 42 11.553 42 11L42 7C42 3.141 38.859 0 35 0L13 0 z M 13 2L35 2C37.757 2 40 4.243 40 7L40 8L8 8L8 7C8 4.243 10.243 2 13 2 z M 19 4C18.447 4 18 4.447 18 5C18 5.553 18.447 6 19 6L21 6C21.553 6 22 5.553 22 5C22 4.447 21.553 4 21 4L19 4 z M 25 4C24.447 4 24 4.447 24 5C24 5.553 24.447 6 25 6L29 6C29.553 6 30 5.553 30 5C30 4.447 29.553 4 29 4L25 4 z M 31 14C30.447 14 30 14.447 30 15L30 18L29 18C27.346 18 26 19.346 26 21L26 22L23 22C22.447 22 22 22.447 22 23C22 23.553 22.447 24 23 24L26 24L26 27L23 27C22.447 27 22 27.447 22 28C22 28.553 22.447 29 23 29L26 29L26 32L23 32C22.447 32 22 32.447 22 33C22 33.553 22.447 34 23 34L26 34L26 37L23 37C22.447 37 22 37.447 22 38C22 38.553 22.447 39 23 39L26 39L26 41C26 42.654 27.346 44 29 44L30 44L30 47C30 47.553 30.447 48 31 48C31.553 48 32 47.553 32 47L32 44L35 44L35 47C35 47.553 35.447 48 36 48C36.553 48 37 47.553 37 47L37 44L40 44L40 47C40 47.553 40.447 48 41 48C41.553 48 42 47.553 42 47L42 44L45 44L45 47C45 47.553 45.447 48 46 48C46.553 48 47 47.553 47 47L47 44L50 44L50 47C50 47.553 50.447 48 51 48C51.553 48 52 47.553 52 47L52 44L53 44C54.654 44 56 42.654 56 41L56 39L59 39C59.553 39 60 38.553 60 38C60 37.447 59.553 37 59 37L56 37L56 34L59 34C59.553 34 60 33.553 60 33C60 32.447 59.553 32 59 32L56 32L56 29L59 29C59.553 29 60 28.553 60 28C60 27.447 59.553 27 59 27L56 27L56 24L59 24C59.553 24 60 23.553 60 23C60 22.447 59.553 22 59 22L56 22L56 21C56 19.346 54.654 18 53 18L52 18L52 15C52 14.447 51.553 14 51 14C50.447 14 50 14.447 50 15L50 18L47 18L47 15C47 14.447 46.553 14 46 14C45.447 14 45 14.447 45 15L45 18L42 18L42 15C42 14.447 41.553 14 41 14C40.447 14 40 14.447 40 15L40 18L37 18L37 15C37 14.447 36.553 14 36 14C35.447 14 35 14.447 35 15L35 18L32 18L32 15C32 14.447 31.553 14 31 14 z M 29 20L53 20C53.552 20 54 20.448 54 21L54 41C54 41.552 53.552 42 53 42L29 42C28.448 42 28 41.552 28 41L28 21C28 20.448 28.448 20 29 20 z M 33 23 A 2 2 0 0 0 31 25 A 2 2 0 0 0 33 27 A 2 2 0 0 0 35 25 A 2 2 0 0 0 33 23 z M 32 30C31.447 30 31 30.447 31 31C31 31.553 31.447 32 32 32L41 32C41.553 32 42 31.553 42 31C42 30.447 41.553 30 41 30L32 30 z M 32 34C31.447 34 31 34.447 31 35C31 35.553 31.447 36 32 36L37 36C37.553 36 38 35.553 38 35C38 34.447 37.553 34 37 34L32 34 z M 8 54L40 54L40 57C40 59.757 37.757 62 35 62L13 62C10.243 62 8 59.757 8 57L8 54 z M 24 56 A 2 2 0 0 0 22 58 A 2 2 0 0 0 24 60 A 2 2 0 0 0 26 58 A 2 2 0 0 0 24 56 z" fill="#0D009A" />
</svg>