<svg xmlns="http://www.w3.org/2000/svg" viewBox="0 0 32 32">
  <path d="M8 3C5.800781 3 4 4.800781 4 7C4 9.199219 5.800781 11 8 11C8.707031 11 9.359375 10.796875 9.9375 10.46875L12.125 12.90625C11.433594 13.765625 11 14.824219 11 16C11 17.089844 11.367188 18.082031 11.96875 18.90625L10.21875 20.6875C10.210938 20.683594 10.195313 20.691406 10.1875 20.6875C9.554688 20.265625 8.8125 20 8 20C5.800781 20 4 21.800781 4 24C4 26.199219 5.800781 28 8 28C10.199219 28 12 26.199219 12 24C12 23.34375 11.816406 22.734375 11.53125 22.1875L13.4375 20.28125C14.191406 20.738281 15.0625 21 16 21C16.710938 21 17.386719 20.835938 18 20.5625L19.15625 22.21875C18.449219 22.941406 18 23.917969 18 25C18 27.199219 19.800781 29 22 29C24.199219 29 26 27.199219 26 25C26 22.800781 24.199219 21 22 21C21.609375 21 21.230469 21.082031 20.875 21.1875L19.625 19.40625C20.25 18.742188 20.714844 17.921875 20.90625 17L22.15625 17C22.601563 18.71875 24.148438 20 26 20C28.199219 20 30 18.199219 30 16C30 13.800781 28.199219 12 26 12C24.148438 12 22.601563 13.28125 22.15625 15L20.90625 15C20.667969 13.851563 20.007813 12.84375 19.125 12.125L19.5625 10.9375C19.707031 10.953125 19.851563 11 20 11C22.199219 11 24 9.199219 24 7C24 4.800781 22.199219 3 20 3C17.800781 3 16 4.800781 16 7C16 8.328125 16.683594 9.488281 17.6875 10.21875L17.3125 11.1875C16.890625 11.070313 16.457031 11 16 11C15.148438 11 14.363281 11.242188 13.65625 11.625L11.375 9.125C11.769531 8.507813 12 7.78125 12 7C12 4.800781 10.199219 3 8 3 Z M 8 5C9.117188 5 10 5.882813 10 7C10 7.558594 9.765625 8.046875 9.40625 8.40625C9.046875 8.765625 8.558594 9 8 9C6.882813 9 6 8.117188 6 7C6 5.882813 6.882813 5 8 5 Z M 20 5C21.117188 5 22 5.882813 22 7C22 8.117188 21.117188 9 20 9C18.882813 9 18 8.117188 18 7C18 5.882813 18.882813 5 20 5 Z M 16 13C17.65625 13 19 14.34375 19 16C18.996094 16.042969 18.996094 16.082031 19 16.125C18.933594 17.71875 17.613281 19 16 19C15.25 19 14.558594 18.734375 14.03125 18.28125C13.394531 17.730469 13 16.90625 13 16C13 14.34375 14.34375 13 16 13 Z M 26 14C27.117188 14 28 14.882813 28 16C28 17.117188 27.117188 18 26 18C24.882813 18 24 17.117188 24 16C24 14.882813 24.882813 14 26 14 Z M 8 22C9.117188 22 10 22.882813 10 24C10 25.117188 9.117188 26 8 26C6.882813 26 6 25.117188 6 24C6 22.882813 6.882813 22 8 22 Z M 22 23C23.117188 23 24 23.882813 24 25C24 26.117188 23.117188 27 22 27C20.882813 27 20 26.117188 20 25C20 24.335938 20.324219 23.769531 20.8125 23.40625C20.964844 23.355469 21.105469 23.269531 21.21875 23.15625C21.230469 23.152344 21.238281 23.128906 21.25 23.125C21.480469 23.035156 21.734375 23 22 23Z" fill="#FFFFFF" />
</svg>