<svg xmlns="http://www.w3.org/2000/svg" viewBox="0 0 50 50">
  <path d="M25 2C24.832031 2 24.652344 2.039063 24.5 2.125L17.03125 6.28125L25 10.625L33 6.3125L25.5 2.125C25.347656 2.039063 25.167969 2 25 2 Z M 16 8L16 10.84375L6.5 16.125C6.1875 16.304688 5.996094 16.640625 6 17L6 25.625L2.96875 27.3125L11 31.625L18.9375 27.28125L11.5 23.125C11.195313 22.957031 10.804688 22.957031 10.5 23.125L8 24.5L8 17.59375L16 13.15625L16 16.34375C16 16.707031 16.183594 17.042969 16.5 17.21875L24 21.375L24 12.375 Z M 34 8.0625L26 12.375L26 21.375L33.5 17.21875C33.816406 17.042969 34 16.707031 34 16.34375L34 13.15625L42 17.59375L42 24.53125L39.5 23.125C39.199219 22.957031 38.800781 22.957031 38.5 23.125L31.03125 27.28125L39 31.625L46.9375 27.28125L44 25.625L44 17C44 16.636719 43.816406 16.300781 43.5 16.125L34 10.84375 Z M 20 28.96875L12 33.375L12 42.375L13.3125 41.65625L24.5 47.875C24.808594 48.054688 25.191406 48.054688 25.5 47.875L36.6875 41.65625L38 42.375L38 33.375L30 29L30 37.34375C30 37.707031 30.183594 38.042969 30.5 38.21875L34.625 40.5L25 45.84375L15.375 40.5L19.5 38.21875C19.816406 38.042969 20 37.707031 20 37.34375 Z M 48 28.96875L40 33.375L40 42.375L47.5 38.21875C47.816406 38.042969 48 37.707031 48 37.34375 Z M 2 29.0625L2 37.34375C2 37.707031 2.183594 38.042969 2.5 38.21875L10 42.375L10 33.375Z" fill="#0D009A" />
</svg>