<svg xmlns="http://www.w3.org/2000/svg" viewBox="0 0 50 50">
  <path d="M24.8125 2C24.703125 2.023438 24.597656 2.066406 24.5 2.125L16.5 6.5625C16.46875 6.582031 16.4375 6.601563 16.40625 6.625C16.394531 6.636719 16.386719 6.644531 16.375 6.65625C16.363281 6.667969 16.355469 6.675781 16.34375 6.6875C16.320313 6.707031 16.300781 6.726563 16.28125 6.75C16.234375 6.796875 16.191406 6.851563 16.15625 6.90625C16.144531 6.925781 16.132813 6.949219 16.125 6.96875C16.113281 6.988281 16.101563 7.011719 16.09375 7.03125C16.082031 7.042969 16.074219 7.050781 16.0625 7.0625C16.0625 7.074219 16.0625 7.082031 16.0625 7.09375C16.050781 7.113281 16.039063 7.136719 16.03125 7.15625C16.03125 7.167969 16.03125 7.175781 16.03125 7.1875C16.03125 7.207031 16.03125 7.230469 16.03125 7.25C16.019531 7.289063 16.007813 7.332031 16 7.375C15.992188 7.4375 15.992188 7.5 16 7.5625L16 10.84375L6.5 16.125C6.1875 16.304688 5.996094 16.640625 6 17L6 25.625L2.625 27.5L2.5 27.5625C2.46875 27.582031 2.4375 27.601563 2.40625 27.625C2.394531 27.636719 2.386719 27.644531 2.375 27.65625C2.363281 27.667969 2.355469 27.675781 2.34375 27.6875C2.320313 27.707031 2.300781 27.726563 2.28125 27.75C2.257813 27.769531 2.238281 27.789063 2.21875 27.8125C2.195313 27.84375 2.175781 27.875 2.15625 27.90625C2.144531 27.925781 2.132813 27.949219 2.125 27.96875C2.113281 27.988281 2.101563 28.011719 2.09375 28.03125C2.082031 28.042969 2.074219 28.050781 2.0625 28.0625C2.0625 28.074219 2.0625 28.082031 2.0625 28.09375C2.050781 28.113281 2.039063 28.136719 2.03125 28.15625C2.03125 28.167969 2.03125 28.175781 2.03125 28.1875C2.03125 28.207031 2.03125 28.230469 2.03125 28.25C2.019531 28.289063 2.007813 28.332031 2 28.375C1.992188 28.4375 1.992188 28.5 2 28.5625L2 37.34375C1.996094 37.703125 2.1875 38.039063 2.5 38.21875L10.4375 42.625L10.5 42.65625C10.511719 42.667969 10.519531 42.675781 10.53125 42.6875C10.550781 42.6875 10.574219 42.6875 10.59375 42.6875C10.605469 42.699219 10.613281 42.707031 10.625 42.71875C10.644531 42.730469 10.667969 42.742188 10.6875 42.75C10.699219 42.75 10.707031 42.75 10.71875 42.75C10.738281 42.75 10.761719 42.75 10.78125 42.75C10.792969 42.761719 10.800781 42.769531 10.8125 42.78125C10.832031 42.78125 10.855469 42.78125 10.875 42.78125C10.886719 42.78125 10.894531 42.78125 10.90625 42.78125C10.925781 42.78125 10.949219 42.78125 10.96875 42.78125C10.980469 42.78125 10.988281 42.78125 11 42.78125C11.019531 42.78125 11.042969 42.78125 11.0625 42.78125C11.082031 42.78125 11.105469 42.78125 11.125 42.78125C11.210938 42.769531 11.292969 42.75 11.375 42.71875C11.386719 42.71875 11.394531 42.71875 11.40625 42.71875C11.417969 42.707031 11.425781 42.699219 11.4375 42.6875C11.457031 42.679688 11.480469 42.667969 11.5 42.65625L11.59375 42.59375C11.613281 42.585938 11.636719 42.574219 11.65625 42.5625L13.3125 41.65625L24.5 47.875C24.808594 48.054688 25.191406 48.054688 25.5 47.875L36.6875 41.65625L38.4375 42.625C38.46875 42.648438 38.5 42.667969 38.53125 42.6875C38.550781 42.6875 38.574219 42.6875 38.59375 42.6875C38.605469 42.699219 38.613281 42.707031 38.625 42.71875C38.644531 42.730469 38.667969 42.742188 38.6875 42.75C38.699219 42.75 38.707031 42.75 38.71875 42.75C38.738281 42.75 38.761719 42.75 38.78125 42.75C38.792969 42.761719 38.800781 42.769531 38.8125 42.78125C38.832031 42.78125 38.855469 42.78125 38.875 42.78125C38.886719 42.78125 38.894531 42.78125 38.90625 42.78125C38.925781 42.78125 38.949219 42.78125 38.96875 42.78125C38.980469 42.78125 38.988281 42.78125 39 42.78125C39.019531 42.78125 39.042969 42.78125 39.0625 42.78125C39.082031 42.78125 39.105469 42.78125 39.125 42.78125C39.210938 42.769531 39.292969 42.75 39.375 42.71875C39.386719 42.71875 39.394531 42.71875 39.40625 42.71875C39.417969 42.707031 39.425781 42.699219 39.4375 42.6875C39.457031 42.679688 39.480469 42.667969 39.5 42.65625L39.59375 42.59375C39.613281 42.585938 39.636719 42.574219 39.65625 42.5625L47.5 38.21875C47.8125 38.039063 48.003906 37.703125 48 37.34375L48 28.96875C48.261719 28.652344 48.300781 28.207031 48.097656 27.847656C47.898438 27.488281 47.5 27.289063 47.09375 27.34375L44 25.625L44 17C44.003906 16.640625 43.8125 16.304688 43.5 16.125L34 10.84375L34 7.96875C34.261719 7.652344 34.300781 7.207031 34.097656 6.847656C33.898438 6.488281 33.5 6.289063 33.09375 6.34375L25.5 2.125C25.320313 2.023438 25.113281 1.980469 24.90625 2C24.875 2 24.84375 2 24.8125 2 Z M 25 4.15625L30.9375 7.4375L25 10.65625L19.0625 7.4375 Z M 18 9.125L24 12.375L24 19.0625L18 15.75L18 11.71875C18.058594 11.527344 18.058594 11.316406 18 11.125 Z M 32 9.125L32 11.125C31.945313 11.308594 31.945313 11.503906 32 11.6875L32 15.75L26 19.0625L26 12.375 Z M 16 13.15625L16 16.34375C15.996094 16.703125 16.1875 17.039063 16.5 17.21875L24.5 21.65625C24.511719 21.667969 24.519531 21.675781 24.53125 21.6875C24.550781 21.6875 24.574219 21.6875 24.59375 21.6875C24.605469 21.699219 24.613281 21.707031 24.625 21.71875C24.644531 21.730469 24.667969 21.742188 24.6875 21.75C24.699219 21.75 24.707031 21.75 24.71875 21.75C24.738281 21.75 24.761719 21.75 24.78125 21.75C24.792969 21.761719 24.800781 21.769531 24.8125 21.78125C24.832031 21.78125 24.855469 21.78125 24.875 21.78125C24.886719 21.78125 24.894531 21.78125 24.90625 21.78125C24.925781 21.78125 24.949219 21.78125 24.96875 21.78125C24.980469 21.78125 24.988281 21.78125 25 21.78125C25.019531 21.78125 25.042969 21.78125 25.0625 21.78125C25.082031 21.78125 25.105469 21.78125 25.125 21.78125C25.210938 21.769531 25.292969 21.75 25.375 21.71875C25.386719 21.71875 25.394531 21.71875 25.40625 21.71875C25.417969 21.707031 25.425781 21.699219 25.4375 21.6875C25.457031 21.679688 25.480469 21.667969 25.5 21.65625L25.59375 21.59375C25.613281 21.585938 25.636719 21.574219 25.65625 21.5625L33.5 17.21875C33.8125 17.039063 34.003906 16.703125 34 16.34375L34 13.15625L42 17.59375L42 24.5L39.5 23.125C39.320313 23.023438 39.113281 22.980469 38.90625 23C38.875 23 38.84375 23 38.8125 23C38.703125 23.023438 38.597656 23.066406 38.5 23.125L30.5 27.5625C30.480469 27.570313 30.457031 27.582031 30.4375 27.59375C30.414063 27.613281 30.394531 27.632813 30.375 27.65625C30.363281 27.667969 30.355469 27.675781 30.34375 27.6875C30.320313 27.707031 30.300781 27.726563 30.28125 27.75C30.203125 27.832031 30.140625 27.925781 30.09375 28.03125C30.082031 28.042969 30.074219 28.050781 30.0625 28.0625C30.0625 28.074219 30.0625 28.082031 30.0625 28.09375C30.050781 28.113281 30.039063 28.136719 30.03125 28.15625C30.011719 28.226563 30.003906 28.300781 30 28.375C30 28.394531 30 28.417969 30 28.4375L30 37.34375C29.996094 37.703125 30.1875 38.039063 30.5 38.21875L34.625 40.5L25 45.84375L15.375 40.5L19.5 38.21875C19.8125 38.039063 20.003906 37.703125 20 37.34375L20 28.96875C20.261719 28.652344 20.300781 28.207031 20.097656 27.847656C19.898438 27.488281 19.5 27.289063 19.09375 27.34375L11.5 23.125C11.320313 23.023438 11.113281 22.980469 10.90625 23C10.875 23 10.84375 23 10.8125 23C10.703125 23.023438 10.597656 23.066406 10.5 23.125L8 24.5L8 17.59375 Z M 11 25.15625L16.9375 28.4375L11 31.65625L5.0625 28.4375L7.3125 27.1875L7.5 27.09375C7.519531 27.085938 7.542969 27.074219 7.5625 27.0625L7.59375 27.03125C7.613281 27.023438 7.636719 27.011719 7.65625 27 Z M 39 25.15625L42.4375 27.0625C42.496094 27.101563 42.558594 27.132813 42.625 27.15625L44.9375 28.4375L39 31.65625L33.0625 28.4375 Z M 4 30.125L10 33.375L10 40.0625L4 36.75 Z M 18 30.125L18 36.75L12.9375 39.5625L12.90625 39.5625C12.886719 39.570313 12.863281 39.582031 12.84375 39.59375C12.777344 39.617188 12.714844 39.648438 12.65625 39.6875C12.632813 39.707031 12.613281 39.726563 12.59375 39.75L12 40.0625L12 33.375 Z M 32 30.125L38 33.375L38 40.0625L37.3125 39.6875C37.300781 39.675781 37.292969 39.667969 37.28125 39.65625L37.21875 39.625C37.1875 39.613281 37.15625 39.601563 37.125 39.59375L32 36.75 Z M 46 30.125L46 36.75L40 40.0625L40 33.375Z" fill="#0D009A" />
</svg>