<svg xmlns="http://www.w3.org/2000/svg" viewBox="0 0 50 50">
  <path d="M31.167969 8C30.699219 7.988281 30.289063 8.167969 30.078125 8.6875C29.71875 9.558594 30.613281 10.410156 30.933594 10.855469C31.15625 11.164063 31.445313 11.511719 31.605469 11.859375C31.710938 12.089844 31.726563 12.320313 31.816406 12.5625C32.039063 13.160156 32.394531 13.839844 32.679688 14.394531C32.824219 14.675781 32.984375 14.96875 33.167969 15.21875C33.28125 15.371094 33.472656 15.441406 33.503906 15.675781C33.316406 15.941406 33.304688 16.351563 33.199219 16.6875C32.722656 18.191406 32.902344 20.0625 33.59375 21.171875C33.808594 21.515625 34.3125 22.246094 35 21.96875C35.601563 21.722656 35.46875 20.960938 35.640625 20.285156C35.679688 20.136719 35.65625 20.023438 35.734375 19.921875L35.734375 19.953125C35.914063 20.320313 36.097656 20.6875 36.28125 21.050781C36.691406 21.707031 37.414063 22.390625 38.023438 22.855469C38.339844 23.09375 38.589844 23.507813 39 23.648438L39 23.617188L38.96875 23.617188C38.890625 23.492188 38.765625 23.441406 38.664063 23.34375C38.425781 23.109375 38.160156 22.816406 37.964844 22.546875C37.40625 21.792969 36.914063 20.964844 36.46875 20.105469C36.253906 19.695313 36.066406 19.242188 35.886719 18.824219C35.816406 18.660156 35.816406 18.417969 35.671875 18.332031C35.472656 18.640625 35.183594 18.886719 35.03125 19.25C34.789063 19.828125 34.753906 20.535156 34.664063 21.265625C34.609375 21.285156 34.632813 21.269531 34.605469 21.296875C34.179688 21.191406 34.027344 20.753906 33.871094 20.378906C33.472656 19.429688 33.394531 17.898438 33.75 16.808594C33.839844 16.523438 34.25 15.632813 34.085938 15.371094C34.007813 15.109375 33.742188 14.960938 33.597656 14.761719C33.414063 14.515625 33.234375 14.191406 33.109375 13.90625C32.78125 13.164063 32.472656 12.304688 32.125 11.554688C31.960938 11.195313 31.683594 10.835938 31.453125 10.515625C31.199219 10.164063 30.917969 9.90625 30.71875 9.476563C30.652344 9.328125 30.554688 9.085938 30.660156 8.929688C30.691406 8.824219 30.738281 8.78125 30.84375 8.746094C31.019531 8.609375 31.511719 8.789063 31.699219 8.867188C32.1875 9.070313 32.597656 9.265625 33.011719 9.539063C33.210938 9.671875 33.410156 9.925781 33.652344 10L33.925781 10C34.359375 10.097656 34.839844 10.027344 35.238281 10.152344C35.949219 10.367188 36.585938 10.703125 37.160156 11.066406C38.921875 12.175781 40.363281 13.757813 41.34375 15.644531C41.503906 15.949219 41.574219 16.242188 41.714844 16.5625C41.992188 17.210938 42.347656 17.882813 42.628906 18.515625C42.90625 19.152344 43.179688 19.789063 43.574219 20.316406C43.78125 20.59375 44.585938 20.746094 44.949219 20.898438C45.203125 21.007813 45.625 21.121094 45.863281 21.265625C46.328125 21.542969 46.773438 21.875 47.207031 22.183594C47.425781 22.335938 48.089844 22.667969 48.125 22.945313C47.050781 22.917969 46.230469 23.015625 45.53125 23.3125C45.332031 23.398438 45.011719 23.398438 44.980469 23.648438C45.085938 23.761719 45.105469 23.933594 45.191406 24.074219C45.359375 24.34375 45.640625 24.707031 45.894531 24.898438C46.171875 25.105469 46.453125 25.328125 46.75 25.511719C47.273438 25.828125 47.859375 26.011719 48.367188 26.332031C48.664063 26.523438 48.964844 26.761719 49.253906 26.972656C49.398438 27.082031 49.492188 27.246094 49.679688 27.3125L49.679688 27.28125C49.582031 27.15625 49.558594 26.984375 49.46875 26.855469L49.066406 26.453125C48.679688 25.941406 48.1875 25.488281 47.664063 25.113281C47.246094 24.8125 46.3125 24.40625 46.140625 23.921875L46.109375 23.890625C46.402344 23.859375 46.75 23.75 47.023438 23.675781C47.484375 23.554688 47.890625 23.585938 48.363281 23.464844C48.578125 23.402344 48.792969 23.339844 49.007813 23.28125L49.007813 23.15625C48.769531 22.914063 48.597656 22.585938 48.335938 22.363281C47.652344 21.78125 46.90625 21.199219 46.136719 20.714844C45.710938 20.445313 45.183594 20.269531 44.734375 20.042969C44.582031 19.964844 44.316406 19.925781 44.214844 19.796875C43.976563 19.496094 43.847656 19.113281 43.664063 18.761719C43.28125 18.023438 42.90625 17.21875 42.566406 16.441406C42.335938 15.914063 42.183594 15.390625 41.894531 14.914063C40.507813 12.636719 39.015625 11.257813 36.703125 9.90625C36.210938 9.617188 35.621094 9.507813 34.996094 9.359375C34.65625 9.335938 34.324219 9.316406 33.984375 9.296875C33.78125 9.210938 33.566406 8.960938 33.375 8.835938C32.894531 8.535156 31.949219 8.011719 31.167969 8 Z M 34.476563 11.3125C34.253906 11.308594 34.09375 11.339844 33.925781 11.375L33.925781 11.40625L33.957031 11.40625C34.0625 11.625 34.253906 11.765625 34.386719 11.953125C34.488281 12.167969 34.585938 12.382813 34.6875 12.597656L34.71875 12.566406C34.90625 12.433594 34.996094 12.21875 34.996094 11.894531C34.917969 11.816406 34.90625 11.714844 34.84375 11.621094C34.753906 11.492188 34.585938 11.421875 34.476563 11.3125 Z M 1.867188 23.996094C1.566406 24.007813 1.238281 24.066406 0.882813 24.179688C0.289063 24.359375 -0.00390625 24.714844 -0.00390625 25.4375L-0.00390625 33L2 33L2 25.621094L4.777344 31.929688C5.121094 32.714844 5.589844 32.996094 6.507813 32.996094C7.429688 32.996094 7.878906 32.714844 8.222656 31.929688L11 25.78125L11 33L13 33L13 25.4375C13 24.714844 12.710938 24.359375 12.113281 24.179688C10.691406 23.730469 9.734375 24.117188 9.304688 25.089844L6.453125 31.503906L3.695313 25.089844C3.382813 24.359375 2.757813 23.960938 1.867188 23.996094 Z M 26.246094 24C25.457031 24 23 24.09375 23 26L23 27.234375C23 28.109375 23.769531 28.824219 25.4375 29C25.625 29.011719 25.8125 29.027344 26 29.027344C26 29.027344 27.945313 28.988281 28 29C29.125 29 29 29.875 29 30L29 31C29 31.136719 28.96875 32 27.988281 32L23 32L23 33L28.007813 33C28.664063 33 29.300781 32.863281 29.808594 32.625C30.652344 32.238281 31 31.714844 31 31.027344L31 29.597656C31 28.0625 29.09375 28 28 28L26 28C25.214844 28 25.09375 27.523438 25 27L25 26C25.09375 25.601563 25.269531 25.0625 25.964844 25L31 25L31 24 Z M 33.980469 24C32.503906 24.203125 31.984375 24.9375 31.984375 26L31.984375 31C31.984375 31.972656 32.527344 32.558594 33.644531 32.863281C34.019531 32.96875 34.359375 33.011719 34.679688 33.011719L36.90625 33L38.214844 33L39.328125 34L41.578125 34L40.03125 32.605469C40.757813 32.304688 40.984375 31.84375 40.984375 30.980469L40.984375 26C40.984375 24.9375 40.292969 24.203125 38.816406 24 Z M 42 24L42 30.957031C42 32.164063 42.683594 32.84375 44.492188 32.980469C44.660156 32.988281 44.832031 33 45 33L50 33L50 32L45.378906 32C44.347656 32 44 31.566406 44 30.949219L44 24 Z M 35.171875 25L37.746094 25C38.425781 25 38.882813 25.546875 38.984375 26C38.984375 26 39 30.65625 39 31C39 31.34375 38.808594 31.5 38.808594 31.5L38.265625 31L36 31L37.113281 32L35.171875 32C34.476563 32 34.085938 31.484375 33.984375 31L33.984375 26.101563C33.984375 25.570313 34.390625 25 35.171875 25 Z M 14 27C14.039063 27.039063 14 31.261719 14 31.34375C14.015625 32.21875 15.125 32.984375 16.863281 33L20 33L20 33.066406C20 33.253906 20.136719 33.878906 19 34C18.988281 34 14.011719 34 14 34L14 35L19.214844 35C20.097656 34.972656 22.011719 34.773438 22 33.242188C22 33.214844 22.007813 27 22 27L20 27L20 32C19.96875 32 17.523438 32.007813 17.03125 32C16.066406 31.984375 15.984375 31.433594 16 31.222656L16 27Z" fill="#FFFFFF" />
</svg>