<svg xmlns="http://www.w3.org/2000/svg" viewBox="0 0 128 128">
  <path d="M14 1C6.8 1 1 6.8 1 14L1 44C1 51.2 6.8 57 14 57C18 57 21.6 55.200781 24 52.300781C24.6 53.000781 25.3 53.699219 26 54.199219L26 89C26 90.7 27.3 92 29 92L99 92C100.7 92 102 90.7 102 89L102 54.199219C102.7 53.599219 103.4 53.000781 104 52.300781C106.4 55.200781 110 57 114 57C121.2 57 127 51.2 127 44L127 14C127 6.8 121.2 1 114 1L14 1 z M 14 7L114 7C117.9 7 121 10.1 121 14L121 44C121 47.9 117.9 51 114 51C110.1 51 107 47.9 107 44L107 19C107 17.3 105.7 16 104 16C102.3 16 101 17.3 101 19L101 44C101 47.9 97.9 51 94 51C90.1 51 87 47.9 87 44L87 19C87 17.3 85.7 16 84 16C82.3 16 81 17.3 81 19L81 44C81 47.9 77.9 51 74 51C70.1 51 67 47.9 67 44L67 19C67 17.3 65.7 16 64 16C62.3 16 61 17.3 61 19L61 44C61 47.9 57.9 51 54 51C50.1 51 47 47.9 47 44L47 19C47 17.3 45.7 16 44 16C42.3 16 41 17.3 41 19L41 44C41 47.9 37.9 51 34 51C30.1 51 27 47.9 27 44L27 34C27 32.3 25.7 31 24 31C22.3 31 21 32.3 21 34L21 44C21 47.9 17.9 51 14 51C10.1 51 7 47.9 7 44L7 14C7 10.1 10.1 7 14 7 z M 23.855469 15.642578C23.119531 15.675391 22.425391 15.975 21.900391 16.5C21.800391 16.6 21.6 16.8 21.5 17C21.4 17.2 21.299219 17.3 21.199219 17.5C21.099219 17.7 21.1 17.899609 21 18.099609C21 18.299609 20.900391 18.499219 20.900391 18.699219C20.900391 18.899219 20.9 19.100781 21 19.300781C21.1 19.800781 21.099219 19.999609 21.199219 20.099609C21.299219 20.299609 21.4 20.499609 21.5 20.599609C21.6 20.799609 21.700391 20.9 21.900391 21C22.500391 21.6 23.2 21.900391 24 21.900391C24.2 21.900391 24.399609 21.900781 24.599609 21.800781C24.799609 21.800781 24.999219 21.699609 25.199219 21.599609C25.399219 21.499609 25.599219 21.400781 25.699219 21.300781C25.899219 21.200781 25.999219 21.100391 26.199219 20.900391L26.599609 20.5C26.699609 20.3 26.800391 20.2 26.900391 20C27.000391 19.8 26.999609 19.600391 27.099609 19.400391C27.099609 19.200391 27.199219 19.000781 27.199219 18.800781C27.199219 18.600781 27.199609 18.399219 27.099609 18.199219C27.099609 17.999219 27.000391 17.799609 26.900391 17.599609C26.800391 17.399609 26.699609 17.299609 26.599609 17.099609C26.499609 16.899609 26.399219 16.799609 26.199219 16.599609C26.099219 16.499609 25.899219 16.299219 25.699219 16.199219C25.499219 16.099219 25.399219 16.000391 25.199219 15.900391C24.999219 15.800391 24.799609 15.799219 24.599609 15.699219C24.349609 15.649219 24.100781 15.631641 23.855469 15.642578 z M 14 61C12.3 61 11 62.3 11 64L11 106L4 106C2.3 106 1 107.3 1 109C1 110.7 2.3 112 4 112L124 112C125.7 112 127 110.7 127 109C127 107.3 125.7 106 124 106L117 106L117 64C117 62.3 115.7 61 114 61C112.3 61 111 62.3 111 64L111 106L17 106L17 64C17 62.3 15.7 61 14 61 z M 24 121C22.3 121 21 122.3 21 124C21 125.7 22.3 127 24 127L84 127C85.7 127 87 125.7 87 124C87 122.3 85.7 121 84 121L24 121 z M 104 121C102.3 121 101 122.3 101 124C101 125.7 102.3 127 104 127L114 127C115.7 127 117 125.7 117 124C117 122.3 115.7 121 114 121L104 121 z" fill="#050045" />
</svg>