<svg xmlns="http://www.w3.org/2000/svg" viewBox="0 0 50 50">
  <path d="M25 12C11.542969 12 1 17.710938 1 25C1 32.289063 11.542969 38 25 38C38.457031 38 49 32.289063 49 25C49 17.710938 38.457031 12 25 12 Z M 22.507813 16L25.128906 16L24.296875 20L26.636719 20C28.121094 20 29.117188 20.207031 29.683594 20.726563C30.238281 21.238281 30.40625 22.078125 30.183594 23.222656L29.144531 28L26.480469 28L27.4375 23.582031C27.554688 22.976563 27.507813 22.554688 27.304688 22.332031C27.101563 22.109375 26.65625 22 25.988281 22L23.890625 22L22.625 28L20 28 Z M 11 20L16.332031 20C18.875 20 20.414063 21.703125 19.8125 24.246094C19.113281 27.199219 17.238281 28 13.792969 28L12.144531 28L11.621094 31L8.972656 31 Z M 32 20L37.332031 20C39.875 20 41.414063 21.703125 40.8125 24.246094C40.113281 27.199219 38.238281 28 34.792969 28L33.144531 28L32.621094 31L29.972656 31 Z M 13.269531 22L12.515625 26L14.226563 26C15.707031 26 17.082031 25.832031 17.3125 23.625C17.398438 22.769531 17.042969 22 15.332031 22 Z M 34.269531 22L33.515625 26L35.226563 26C36.707031 26 38.082031 25.832031 38.3125 23.625C38.398438 22.769531 38.042969 22 36.332031 22Z" fill="#FFFFFF" />
</svg>