<svg xmlns="http://www.w3.org/2000/svg" viewBox="0 0 32 32">
  <path d="M16 5C11.011719 5 11 7 11 7L11 11L17 11L17 12L7 12C7 12 4 11.539063 4 17C4 22.460938 7 22 7 22L10 22L10 20.375C10 17.964844 11.964844 16 14.375 16L17.625 16C19.484375 16 21 15.484375 21 13.625L21 7C21 7 20.988281 5 16 5 Z M 13 7C13.550781 7 14 7.449219 14 8C14 8.550781 13.550781 9 13 9C12.449219 9 12 8.550781 12 8C12 7.449219 12.449219 7 13 7 Z M 22 11L22 13.625C22 16.035156 20.035156 17 17.625 17L14.375 17C12.515625 17 11 18.515625 11 20.375L11 26C11 26 11.0625 28 16 28C20.9375 28 21 26 21 26L21 22L15 22L15 21L25 21C25 21 28 21.503906 28 16C28 10.496094 25 11 25 11 Z M 19 24C19.550781 24 20 24.449219 20 25C20 25.550781 19.550781 26 19 26C18.449219 26 18 25.550781 18 25C18 24.449219 18.449219 24 19 24Z" fill="#FFFFFF" />
</svg>