<svg xmlns="http://www.w3.org/2000/svg" viewBox="0 0 24 24">
  <circle cx="7.5" cy="5.5" r="2.5" fill="#001D5F" />
  <circle cx="16.5" cy="5.5" r="2.5" fill="#001D5F" />
  <circle cx="19.5" cy="11.5" r="2.5" fill="#001D5F" />
  <circle cx="19.5" cy="18.5" r="2.5" fill="#001D5F" />
  <circle cx="3.5" cy="15.5" r="2.5" fill="#001D5F" />
  <circle cx="9.5" cy="20.5" r="2.5" fill="#001D5F" />
  <g opacity=".35">
    <path d="M3.5,13c0.907,0,1.694,0.488,2.132,1.21l2.523-6.308C7.945,7.96,7.728,8,7.5,8C6.593,8,5.807,7.512,5.368,6.79 l-2.523,6.308C3.055,13.04,3.272,13,3.5,13z" fill="#001D5F" />
    <path d="M9.489,4C9.805,4.419,10,4.935,10,5.5C10,6.065,9.805,6.581,9.489,7h5.023C14.195,6.581,14,6.065,14,5.5 c0-0.565,0.195-1.081,0.511-1.5H9.489z" fill="#001D5F" />
    <path d="M19.95,9.045l-1.219-2.438C18.321,7.43,17.481,8,16.5,8c-0.154,0-0.303-0.019-0.449-0.045l1.219,2.438 C17.679,9.57,18.519,9,19.5,9C19.654,9,19.803,9.019,19.95,9.045z" fill="#001D5F" />
    <path d="M8.929,18.072L5.988,15.62c-0.055,1.129-0.851,2.058-1.917,2.308l2.941,2.451C7.067,19.251,7.863,18.322,8.929,18.072z" fill="#001D5F" />
    <path d="M17.845,20.361C17.33,19.903,17,19.243,17,18.5c0-0.389,0.096-0.752,0.255-1.08l-6.099,1.22 C11.67,19.097,12,19.757,12,20.5c0,0.389-0.096,0.752-0.255,1.08L17.845,20.361z" fill="#001D5F" />
    <path d="M19.5,14c-0.565,0-1.081-0.195-1.5-0.511v3.023C18.419,16.195,18.935,16,19.5,16s1.081,0.195,1.5,0.511v-3.023 C20.581,13.805,20.065,14,19.5,14z" fill="#001D5F" />
  </g>
</svg>