<svg xmlns="http://www.w3.org/2000/svg" viewBox="0 0 80 80">
  <path d="M58.941406 11.828125L52.355469 16.34375C51.945313 16.128906 51.488281 16 51 16L45 16C43.707031 16 42.605469 16.84375 42.1875 18L31.457031 18C31.375 18 31.289063 18.007813 31.207031 18.03125C29.300781 15.136719 26.054688 13.199219 22.355469 13.074219C22.242188 13.027344 22.121094 13.003906 22 13C21.875 13 21.753906 13.027344 21.640625 13.074219C15.753906 13.273438 11 18.066406 11 24C11 27.894531 13.046875 31.316406 16.109375 33.273438C16.125 33.308594 16.140625 33.339844 16.160156 33.375L30.214844 59L21 59C18.25 59 16 61.25 16 64L16 70L62 70L62 64C62 61.25 59.75 59 57 59L46.496094 59L30.875 30.519531C30.871094 30.507813 30.867188 30.5 30.859375 30.488281C30.984375 30.320313 31.097656 30.144531 31.210938 29.96875C31.292969 29.992188 31.375 30 31.457031 30L42.1875 30C42.605469 31.15625 43.707031 32 45 32L51 32C51.488281 32 51.945313 31.871094 52.355469 31.65625L58.941406 36.171875L71.4375 29.355469L68.34375 24.710938L60.09375 28.835938L54 24.484375L54 23.515625L60.09375 19.164063L68.34375 23.289063L71.4375 18.644531 Z M 59.058594 14.171875L68.5625 19.355469L67.65625 20.710938L59.90625 16.835938L54 21.054688L54 19C54 18.578125 53.90625 18.175781 53.746094 17.8125 Z M 22 15C26.980469 15 31 19.019531 31 24C31 28.980469 26.980469 33 22 33C17.019531 33 13 28.980469 13 24C13 19.019531 17.019531 15 22 15 Z M 22 18C21.449219 18 21 18.449219 21 19C21 19.550781 21.449219 20 22 20C22.550781 20 23 19.550781 23 19C23 18.449219 22.550781 18 22 18 Z M 45 18L51 18C51.214844 18 51.402344 18.078125 51.5625 18.1875C51.625 18.265625 51.695313 18.332031 51.777344 18.390625C51.910156 18.558594 52 18.761719 52 19L52 22.949219C52 22.980469 52 23.015625 52 23.046875L52 24.835938C51.984375 24.941406 51.984375 25.050781 52 25.15625L52 29C52 29.238281 51.910156 29.445313 51.777344 29.613281C51.695313 29.667969 51.625 29.734375 51.5625 29.8125C51.402344 29.921875 51.21875 30 51 30L45 30C44.457031 30 44.042969 29.59375 44.011719 29.058594C44.015625 28.984375 44.011719 28.914063 44 28.84375L44 28C44 27.449219 43.550781 27 43 27C42.449219 27 42 27.449219 42 28L32.230469 28C32.722656 26.757813 33 25.414063 33 24C33 22.585938 32.722656 21.238281 32.230469 20L42 20C42 20.550781 42.449219 21 43 21C43.550781 21 44 20.550781 44 20L44 19C44 18.433594 44.433594 18 45 18 Z M 25.546875 19.464844C25.277344 19.460938 25.019531 19.566406 24.828125 19.753906C24.4375 20.144531 24.4375 20.78125 24.828125 21.171875C25.21875 21.558594 25.851563 21.558594 26.242188 21.171875C26.632813 20.78125 26.632813 20.144531 26.242188 19.753906C26.058594 19.570313 25.808594 19.464844 25.546875 19.464844 Z M 18.480469 19.464844C18.207031 19.460938 17.945313 19.566406 17.753906 19.757813C17.367188 20.148438 17.367188 20.78125 17.753906 21.171875C18.144531 21.5625 18.78125 21.5625 19.171875 21.171875C19.558594 20.78125 19.558594 20.148438 19.171875 19.757813C18.984375 19.574219 18.738281 19.46875 18.480469 19.464844 Z M 17 23C16.449219 23 16 23.449219 16 24C16 24.550781 16.449219 25 17 25C17.550781 25 18 24.550781 18 24C18 23.449219 17.550781 23 17 23 Z M 27 23C26.449219 23 26 23.449219 26 24C26 24.550781 26.449219 25 27 25C27.550781 25 28 24.550781 28 24C28 23.449219 27.550781 23 27 23 Z M 43 23C42.449219 23 42 23.449219 42 24C42 24.550781 42.449219 25 43 25C43.550781 25 44 24.550781 44 24C44 23.449219 43.550781 23 43 23 Z M 18.480469 26.535156C18.207031 26.53125 17.949219 26.636719 17.757813 26.828125C17.367188 27.21875 17.367188 27.851563 17.757813 28.242188C18.148438 28.632813 18.78125 28.632813 19.171875 28.242188C19.5625 27.851563 19.5625 27.21875 19.171875 26.828125C18.988281 26.644531 18.738281 26.539063 18.480469 26.535156 Z M 25.550781 26.535156C25.28125 26.53125 25.019531 26.636719 24.828125 26.828125C24.4375 27.21875 24.4375 27.851563 24.828125 28.242188C25.21875 28.632813 25.851563 28.632813 26.242188 28.242188C26.632813 27.851563 26.632813 27.21875 26.242188 26.828125C26.058594 26.644531 25.8125 26.539063 25.550781 26.535156 Z M 54 26.945313L59.90625 31.164063L67.65625 27.289063L68.5625 28.644531L59.058594 33.828125L53.746094 30.1875C53.90625 29.824219 54 29.421875 54 29 Z M 22 28C21.449219 28 21 28.449219 21 29C21 29.550781 21.449219 30 22 30C22.550781 30 23 29.550781 23 29C23 28.449219 22.550781 28 22 28 Z M 29.449219 32.070313L45.3125 61L57 61C58.667969 61 60 62.332031 60 64L60 68L18 68L18 64C18 62.332031 19.332031 61 21 61L33.59375 61L19.113281 34.601563C20.035156 34.851563 21 35 22 35C24.871094 35 27.484375 33.882813 29.449219 32.070313 Z M 35 59C34.449219 59 34 59.449219 34 60C34 60.550781 34.449219 61 35 61C35.550781 61 36 60.550781 36 60C36 59.449219 35.550781 59 35 59 Z M 39 59C38.449219 59 38 59.449219 38 60C38 60.550781 38.449219 61 39 61C39.550781 61 40 60.550781 40 60C40 59.449219 39.550781 59 39 59 Z M 43 59C42.449219 59 42 59.449219 42 60C42 60.550781 42.449219 61 43 61C43.550781 61 44 60.550781 44 60C44 59.449219 43.550781 59 43 59Z" fill="#FFFFFF" />
</svg>