<svg xmlns="http://www.w3.org/2000/svg" viewBox="0 0 24 24">
  <path d="M18.5625 0L18.03125 0.65625L16.125 3L13 3L13 9L16.125 9L18.03125 11.34375L18.5625 12L19.3125 11.5625L23.90625 8.75L22.875 7.03125L19.03125 9.40625L17 6.875L17 5.125L19.03125 2.59375L22.875 4.96875L23.90625 3.25L19.3125 0.4375 Z M 4 2C1.800781 2 0 3.800781 0 6C0 8.199219 1.800781 10 4 10C6.199219 10 8 8.199219 8 6C8 3.800781 6.199219 2 4 2 Z M 4 4C5.101563 4 6 4.898438 6 6C6 7.101563 5.101563 8 4 8C2.898438 8 2 7.101563 2 6C2 4.898438 2.898438 4 4 4 Z M 8.8125 4C9.511719 5.601563 9.210938 7.101563 8.8125 8L12 8L12 4 Z M 4 4.90625C3.390625 4.90625 2.90625 5.390625 2.90625 6C2.90625 6.609375 3.390625 7.09375 4 7.09375C4.609375 7.09375 5.09375 6.609375 5.09375 6C5.09375 5.390625 4.609375 4.90625 4 4.90625 Z M 7.8125 9.6875C6.511719 11.488281 3.300781 12.195313 1 10.09375L7.40625 21L2 21L2 24L20 24L20 21L14.40625 21Z" fill="#FFFFFF" />
</svg>