<svg xmlns="http://www.w3.org/2000/svg" viewBox="0 0 50 50">
  <path d="M46.539063 2.007813C46.195313 2 45.695313 1.996094 45.066406 2.015625C41.292969 2.152344 32.914063 3.261719 26.203125 9.96875C23.722656 12.453125 22.554688 14.261719 20.5 17L9.425781 17L1.75 30.160156L4.730469 33.144531L13.730469 30.144531L19.855469 36.269531L16.855469 45.269531L19.839844 48.25L33 40.574219L33 29.503906C35.726563 27.449219 37.5625 26.296875 40.046875 23.8125C48.988281 14.867188 47.984375 2.945313 47.984375 2.945313L47.910156 2.105469L47.066406 2.035156C47.066406 2.035156 46.882813 2.019531 46.539063 2.007813 Z M 45.050781 4.015625C45.644531 3.992188 45.675781 4.011719 45.996094 4.023438C46.054688 6.210938 45.878906 15.148438 38.628906 22.394531C36.148438 24.878906 34.445313 25.871094 31.390625 28.203125L31 28.503906L31 39.425781L20.160156 45.75L19.144531 44.730469L22.144531 35.730469L14.269531 27.855469L5.269531 30.855469L4.25 29.839844L10.574219 19L21.496094 19L21.796875 18.605469C24.121094 15.539063 25.128906 13.875 27.621094 11.386719C33.816406 5.1875 41.5625 4.148438 45.050781 4.015625 Z M 38 8.007813C36.972656 8.007813 35.949219 8.394531 35.171875 9.171875C33.621094 10.726563 33.617188 13.273438 35.171875 14.828125C36.726563 16.382813 39.277344 16.382813 40.828125 14.828125C42.382813 13.273438 42.382813 10.722656 40.828125 9.171875C40.054688 8.394531 39.027344 8.003906 38 8.007813 Z M 38 9.992188C38.511719 9.996094 39.019531 10.191406 39.414063 10.585938C40.203125 11.375 40.203125 12.625 39.414063 13.414063C38.625 14.203125 37.375 14.203125 36.585938 13.414063C35.796875 12.625 35.796875 11.375 36.585938 10.585938L36.585938 10.582031C36.980469 10.191406 37.488281 9.992188 38 9.992188Z" fill="#FFFFFF" />
</svg>