<svg xmlns="http://www.w3.org/2000/svg" viewBox="0 0 30 30">
  <path d="M15 3C10.398 3 5.6113281 4.0371094 5.6113281 4.0371094L5.6074219 4.0410156 A 2 2 0 0 0 4 6L4 12C4 22.398 14.021484 26.744141 14.021484 26.744141 A 2 2 0 0 0 15 27 A 2 2 0 0 0 15.974609 26.744141L15.978516 26.744141C15.979516 26.744141 26 22.398 26 12L26 6 A 2 2 0 0 0 24.388672 4.0371094C24.388672 4.0371094 19.602 3 15 3 z M 15 10C16.657 10 18 11.343 18 13C18 14.304 17.163 15.403406 16 15.816406L16 19C16 19.552 15.552 20 15 20C14.448 20 14 19.552 14 19L14 15.816406C12.837 15.403406 12 14.304 12 13C12 11.343 13.343 10 15 10 z" fill="#0D009A" />
</svg>