<svg xmlns="http://www.w3.org/2000/svg" viewBox="0 0 48 48">
  <path d="M12 5C11.62 5 11.260469 5.1403906 10.980469 5.4003906L6 10L42 10L37.019531 5.4003906C36.739531 5.1403906 36.38 5 36 5L12 5 z M 4 13L4 15.300781C4 18.440781 6.5399219 21 9.6699219 21C12.789922 21 15.330078 18.440781 15.330078 15.300781L15.330078 13L4 13 z M 18.330078 13L18.330078 15.300781C18.330078 18.440781 20.88 21 24 21C27.12 21 29.669922 18.440781 29.669922 15.300781L29.669922 13L18.330078 13 z M 32.669922 13L32.669922 15.300781C32.669922 17.274781 33.674312 19.017016 35.195312 20.041016C35.462313 20.023016 35.728 20 36 20C37.429 20 38.794406 20.264609 40.066406 20.724609C42.347406 19.985609 44 17.832781 44 15.300781L44 13L32.669922 13 z M 16.830078 20.189453C15.270078 22.489453 12.639922 24 9.6699219 24C8.3599219 24 7.12 23.709688 6 23.179688L6 42.5C6 43.328 6.672 44 7.5 44L10.5 44C11.328 44 12 43.328 12 42.5L12 29C12 28.45 12.45 28 13 28L21 28C21.55 28 22 28.45 22 29L22 42.5C22 43.328 22.672 44 23.5 44L30.083984 44C26.919984 40.47 24 36.105 24 32C24 28.373 25.623781 25.123875 28.175781 22.921875C26.935781 23.607875 25.514 24 24 24C21.02 24 18.390078 22.489453 16.830078 20.189453 z M 36 22C30.486 22 26 26.486 26 32C26 36.737 31.018766 42.298406 34.009766 45.191406C34.568766 45.731406 35.283 46.001953 36 46.001953C36.716 46.001953 37.432234 45.731406 37.990234 45.191406C40.981234 42.298406 46 36.737 46 32C46 26.486 41.514 22 36 22 z M 36 29C37.657 29 39 30.343 39 32C39 33.657 37.657 35 36 35C34.343 35 33 33.657 33 32C33 30.343 34.343 29 36 29 z" fill="#050045" />
</svg>