<svg xmlns="http://www.w3.org/2000/svg" viewBox="0 0 80 80">
  <path d="M42 4C35.936593 4 31 8.9365932 31 15L31 18.277344C30.404366 18.623613 30 19.261054 30 20C30 21.105 30.895 22 32 22C33.105 22 34 21.105 34 20C34 19.261054 33.595634 18.623613 33 18.277344L33 15C33 10.017407 37.017407 6 42 6C46.982593 6 51 10.017407 51 15L51 18.277344C50.404366 18.623613 50 19.261054 50 20C50 21.105 50.895 22 52 22C53.105 22 54 21.105 54 20C54 19.261054 53.595634 18.623613 53 18.277344L53 15C53 8.9365932 48.063407 4 42 4 z M 15 13L15 69L69 69L69 13L55 13L55 15L67 15L67 67L17 67L17 15L29 15L29 13L15 13 z M 35 13L35 15L49 15L49 13L35 13 z M 9 18L9 75L64 75L64 71L62 71L62 73L11 73L11 20L13 20L13 18L9 18 z M 31.966797 28.71875C30.947694 28.760916 30 29.59412 30 30.705078L30 56.234375C30 57.73896 31.7394 58.723932 33.029297 57.949219L55.035156 44.744141C56.312719 43.978379 56.283535 42.012298 54.984375 41.285156L32.978516 28.960938 A 1.0001 1.0001 0 0 0 32.976562 28.960938C32.653414 28.7802 32.306498 28.704695 31.966797 28.71875 z M 32 30.705078L48.585938 39.992188L48.154297 39.951172L47.853516 40.132812L47.779297 40.199219L47.441406 41.029297L47.90625 41.796875L48.796875 41.882812L49.099609 41.701172L49.173828 41.634766L49.511719 40.804688L49.242188 40.361328L54.007812 43.029297L49.28125 45.865234L49.224609 45.792969L49.150391 45.726562L48.287109 45.486328L47.578125 46.035156L47.59375 46.878906L33.78125 55.166016L34.115234 54.341797L33.652344 53.574219L32.759766 53.488281L32.458984 53.669922L32.382812 53.736328L32.046875 54.566406L32.511719 55.332031L33.363281 55.416016L32 56.234375L32 30.705078 z M 33.078125 31.740234L32.369141 32.289062L32.384766 33.185547L32.599609 33.464844L32.673828 33.53125L33.539062 33.769531L34.246094 33.222656L34.232422 32.326172L34.015625 32.046875L33.941406 31.980469L33.078125 31.740234 z M 36.119141 34.490234L35.412109 35.039062L35.425781 35.933594L35.642578 36.212891L35.716797 36.279297L36.580078 36.519531L37.289062 35.970703L37.273438 35.074219L37.056641 34.796875L36.982422 34.728516L36.119141 34.490234 z M 39.162109 37.238281L38.453125 37.787109L38.46875 38.683594L38.683594 38.962891L38.757812 39.029297L39.621094 39.267578L40.330078 38.720703L40.314453 37.824219L40.099609 37.544922L40.025391 37.478516L39.162109 37.238281 z M 42.203125 39.988281L41.494141 40.537109L41.509766 41.431641L41.726562 41.710938L41.800781 41.777344L42.664062 42.017578L43.371094 41.46875L43.357422 40.574219L43.140625 40.294922L43.066406 40.226562L42.203125 39.988281 z M 45.076172 42.658203L44.775391 42.839844L44.699219 42.90625L44.550781 43.275391L44.537109 43.285156L44.537109 43.306641L44.363281 43.736328L44.550781 44.046875L44.552734 44.181641L44.767578 44.460938L44.841797 44.527344L45.705078 44.767578L46.414062 44.21875L46.402344 43.582031L46.431641 43.511719L46.400391 43.460938L46.398438 43.322266L46.183594 43.042969L46.109375 42.976562L46.107422 42.976562L45.96875 42.746094L45.076172 42.658203 z M 41.998047 45.365234L41.695312 45.546875L41.621094 45.613281L41.283203 46.443359L41.748047 47.210938L42.640625 47.298828L42.941406 47.115234L43.015625 47.048828L43.353516 46.21875L42.888672 45.453125L41.998047 45.365234 z M 38.917969 48.072266L38.617188 48.255859L38.541016 48.320312L38.205078 49.152344L38.667969 49.917969L39.560547 50.005859L39.861328 49.822266L39.9375 49.757812L40.273438 48.925781L39.810547 48.160156L38.917969 48.072266 z M 35.839844 50.779297L35.537109 50.962891L35.462891 51.029297L35.126953 51.859375L35.589844 52.625L36.482422 52.712891L36.783203 52.53125L36.857422 52.464844L37.195312 51.634766L36.730469 50.867188L35.839844 50.779297 z" fill="#0D009A" />
</svg>