<svg xmlns="http://www.w3.org/2000/svg" viewBox="0 0 128 128">
  <path d="M74 1C61.3 1 51 11.3 51 24L51 31L39 31C38.1 31 37.299219 31.399609 36.699219 32.099609C36.099219 32.799609 35.9 33.7 36 34.5L50.5 121L39.699219 121L32 117.09961L32 44C32 42.3 30.7 41 29 41C27.3 41 26 42.3 26 44L26 117.09961L17.699219 121.30078C16.199219 122.00078 15.600391 123.80078 16.400391 125.30078C16.900391 126.40078 17.999609 127 19.099609 127C19.599609 127 20.000391 126.89922 20.400391 126.69922L29.099609 122.40039L37.800781 126.69922C38.200781 126.89922 38.699609 127 39.099609 127L54 127L54.099609 127L124.09961 127C124.99961 127 125.80039 126.60039 126.40039 125.90039C127.00039 125.20039 127.19961 124.3 127.09961 123.5L112.09961 33.5C111.89961 32.1 110.59961 31 109.09961 31L97 31L97 24C97 11.3 86.7 1 74 1 z M 48.197266 1.8769531C47.999414 1.8970703 47.799609 1.9375 47.599609 2C37.799609 4.7 31 13.8 31 24C31 25.7 32.3 27 34 27C35.7 27 37 25.7 37 24C37 16.5 42.000781 9.7992187 49.300781 7.6992188C50.900781 7.1992188 51.800781 5.6 51.300781 4C50.863281 2.6 49.582227 1.7361328 48.197266 1.8769531 z M 74 7C83.4 7 91 14.6 91 24L91 31L77 31L77 24C77 20.9 76.399219 17.8 75.199219 15C74.599219 13.5 72.800781 12.800391 71.300781 13.400391C69.800781 14.000391 69.099219 15.800781 69.699219 17.300781C70.599219 19.400781 71.099609 21.6 71.099609 24L71.099609 31L57 31L57 24C57 14.6 64.6 7 74 7 z M 18.902344 30.951172C17.520117 30.983984 16.2625 32.0125 16 33.5L1 123.5C0.7 125.1 1.8 126.7 3.5 127L4 127C5.4 127 6.7 126 7 124.5L22 34.5C22.2 32.9 21.1 31.3 19.5 31C19.3 30.9625 19.099805 30.946484 18.902344 30.951172 z M 42.5 37L106.40039 37L120.40039 121L56.5 121L42.5 37 z M 71.710938 70.837891C71.445874 70.842188 71.175391 70.862891 70.900391 70.900391C68.400391 71.200391 66.799219 73.499219 63.699219 77.699219C62.999219 78.899219 62 80.199609 61 81.599609C60 82.899609 60.2 84.800781 61.5 85.800781C62.8 86.800781 64.699219 86.600781 65.699219 85.300781C66.799219 83.900781 67.799219 82.500781 68.699219 81.300781C69.899219 79.700781 71.399609 77.600391 72.099609 76.900391C73.299609 77.200391 75.199609 79.600781 76.599609 81.300781C79.299609 84.600781 82.299219 88.400391 86.699219 88.400391L87.5 88.400391C90.6 88.100391 92.900391 85.9 94.900391 84C96.400391 82.5 97.9 81.099219 99 81.199219C99.3 81.199219 99.799219 81.399609 100.19922 81.599609C101.69922 82.299609 103.49922 81.699219 104.19922 80.199219C104.89922 78.699219 104.30078 76.899219 102.80078 76.199219C101.70078 75.699219 100.6 75.299219 99.5 75.199219C95.6 74.799219 92.799609 77.499609 90.599609 79.599609C89.199609 80.899609 87.799219 82.300391 86.699219 82.400391C85.099219 82.600391 82.899609 79.8 81.099609 77.5C78.568359 74.3125 75.68689 70.773437 71.710938 70.837891 z" fill="#050045" />
</svg>