<svg xmlns="http://www.w3.org/2000/svg" viewBox="0 0 24 24">
  <path d="M11 1C10.448 1 10 1.448 10 2L10 3.2304688C8.997 3.4584688 8.0598438 3.8547188 7.2148438 4.3867188L6.34375 3.515625C5.95275 3.124625 5.3196875 3.124625 4.9296875 3.515625L3.515625 4.9296875C3.124625 5.3206875 3.124625 5.95375 3.515625 6.34375L4.3867188 7.2148438C4.0134028 7.80728 3.7219336 8.4529826 3.4921875 9.1269531C3.476659 9.1192067 3.4628251 9.1132313 3.4472656 9.1054688C2.7432656 8.7544687 2.0245313 8.3935937 1.2695312 8.1835938C0.63253125 8.0065938 -1.4802974e-16 8.4893906 0 9.1503906C0 9.6143906 0.32353125 9.9920938 0.76953125 10.121094C1.3295313 10.282094 1.9297344 10.582531 2.5527344 10.894531C2.7208719 10.978273 2.8920824 11.060513 3.0625 11.142578C3.0350731 11.426659 3 11.708647 3 12C3 12.313895 3.034633 12.618426 3.0664062 12.923828C2.4825857 12.636388 1.8903593 12.356274 1.2695312 12.183594C0.63253125 12.006594 0 12.489391 0 13.150391C0 13.614391 0.32353125 13.992094 0.76953125 14.121094C1.3295313 14.282094 1.9297344 14.582531 2.5527344 14.894531C2.9276513 15.081564 3.3116626 15.261259 3.6992188 15.425781C3.8957037 15.897802 4.1170146 16.357147 4.3867188 16.785156L3.515625 17.65625C3.124625 18.04725 3.124625 18.680312 3.515625 19.070312L4.9296875 20.484375C5.3206875 20.875375 5.95375 20.875375 6.34375 20.484375L7.2148438 19.613281C8.0598438 20.145281 8.997 20.541531 10 20.769531L10 22C10 22.552 10.448 23 11 23L13 23C13.552 23 14 22.552 14 22L14 20.769531C15.003 20.541531 15.940156 20.145281 16.785156 19.613281L17.65625 20.484375C18.04725 20.875375 18.680312 20.875375 19.070312 20.484375L20.484375 19.070312C20.875375 18.679313 20.875375 18.04625 20.484375 17.65625L19.613281 16.785156C19.882272 16.358099 20.108624 15.903514 20.300781 15.431641C20.688218 15.263467 21.071752 15.08177 21.447266 14.894531C22.070266 14.582531 22.670469 14.282094 23.230469 14.121094C23.675469 13.993094 24 13.615344 24 13.152344C24 12.491344 23.367469 12.008547 22.730469 12.185547C21.975469 12.395547 21.256734 12.754469 20.552734 13.105469C19.632734 13.564469 18.764 14 18 14C17.236 14 16.367266 13.565469 15.447266 13.105469C14.360266 12.562469 13.236 12 12 12C11.23 12 9.9973906 12.469891 9.1503906 12.837891C8.5753906 13.087891 8.3928594 13.8005 8.7558594 14.3125C8.7598594 14.3185 8.7635781 14.323125 8.7675781 14.328125C9.0365781 14.703125 9.5439375 14.817094 9.9609375 14.621094C10.602938 14.319094 11.454 14 12 14C12.764 14 13.632734 14.434531 14.552734 14.894531C15.2287 15.231581 15.923865 15.560588 16.646484 15.773438C15.547444 17.12709 13.880126 18 12 18C8.686 18 6 15.314 6 12C6 8.686 8.686 6 12 6C14.593503 6 16.791341 7.6494284 17.628906 9.953125C16.958045 9.8466072 16.223025 9.4933485 15.447266 9.1054688C14.360266 8.5624687 13.236 8 12 8C11.718 8 11.442875 8.0358906 11.171875 8.0878906C9.887875 8.3578906 8.8437969 9.2467812 8.3417969 10.425781C8.1747969 10.818781 8.5729844 11.209391 8.9589844 11.025391C9.9789844 10.541391 11.453 10 12 10C12.764 10 13.632734 10.434531 14.552734 10.894531C15.639734 11.436531 16.764 12 18 12C19.236 12 20.360266 11.436531 21.447266 10.894531C22.070266 10.582531 22.670469 10.282094 23.230469 10.121094C23.676469 9.9930937 24 9.6143906 24 9.1503906C24 8.4893906 23.367469 8.0065937 22.730469 8.1835938C21.975469 8.3945938 21.256734 8.7544687 20.552734 9.1054688C20.535241 9.1142156 20.51941 9.1201803 20.501953 9.1289062C20.278065 8.4528546 19.986423 7.807443 19.613281 7.2148438L20.484375 6.34375C20.875375 5.95275 20.875375 5.3196875 20.484375 4.9296875L19.070312 3.515625C18.679313 3.124625 18.04625 3.124625 17.65625 3.515625L16.785156 4.3867188C15.940156 3.8547187 15.003 3.4584688 14 3.2304688L14 2C14 1.448 13.552 1 13 1L11 1 z" fill="#FFFFFF" />
</svg>