<svg xmlns="http://www.w3.org/2000/svg" viewBox="0 0 32 32">
  <path d="M16.023438 4C15.308594 4 14.59375 4.007813 13.878906 4.027344C10.199219 4.125 6.46875 4.796875 3 6L4 7C6.9375 5.941406 10.246094 5.332031 13.921875 5.21875C15.316406 5.175781 16.730469 5.175781 18.125 5.21875C21.800781 5.332031 25.0625 5.941406 28 7L29 6C25.53125 4.796875 21.847656 4.125 18.167969 4.027344C17.453125 4.007813 16.738281 4 16.023438 4 Z M 12.949219 6.945313C10.542969 6.917969 7.269531 7.058594 5 8C5.417969 8.8125 7.003906 9.742188 8 10C8.054688 8.402344 10.882813 8 13 8L16 29L19 8C21.113281 8 23.941406 8.402344 24 10C25 9.742188 26.582031 8.8125 27 8C23.972656 6.742188 19.167969 6.914063 17 7L16 8L15 7C14.457031 6.980469 13.75 6.953125 12.949219 6.945313Z" fill="#FFFFFF" />
</svg>