<svg xmlns="http://www.w3.org/2000/svg" viewBox="0 0 50 50">
  <path d="M6 3C4.300781 3 3 4.300781 3 6L3 26C3 27.699219 4.300781 29 6 29L6.0625 29L10.46875 23.71875L10.78125 23.34375C10.476563 23.460938 10.273438 23.542969 10.21875 23.5625L9.59375 21.65625C9.648438 21.636719 12.394531 20.699219 15.0625 18.8125C12.503906 16.488281 11.207031 14.121094 11.125 13.96875L12.875 13.03125C12.894531 13.066406 14.167969 15.34375 16.65625 17.53125C18.265625 16.078125 19.625 14.230469 19.9375 12L8 12L8 10L16 10L16 8L18 8L18 10L25 10L25 12L21.9375 12C21.640625 14.789063 20.132813 17.035156 18.28125 18.78125C19.03125 19.300781 19.847656 19.777344 20.75 20.1875C21.617188 19.449219 22.742188 19 24 19L29 19L29 6C29 4.300781 27.699219 3 26 3 Z M 16.6875 20.125C15.246094 21.203125 13.75 22 12.5625 22.5625L13.53125 23.71875L17.9375 29L19 29L19 24C19 23.214844 19.1875 22.46875 19.5 21.8125C18.464844 21.308594 17.53125 20.742188 16.6875 20.125 Z M 24 21C22.300781 21 21 22.300781 21 24L21 32.0625L26.28125 36.46875L28.125 38L26.28125 39.53125L21 43.9375L21 44C21 45.699219 22.300781 47 24 47L44 47C45.699219 47 47 45.699219 47 44L47 24C47 22.300781 45.699219 21 44 21 Z M 12 25L7 31L10 31L10 35L14 35L14 31L17 31 Z M 33 26.40625L35.09375 26.40625L40.3125 40.1875L37.8125 40.1875L36.6875 37L31.40625 37L30.3125 40.1875L27.8125 40.1875 Z M 34 29.40625L32 35.09375L36 35.09375 Z M 19 33L19 36L10 36L14 40L19 40L19 43L25 38Z" fill="#FFFFFF" />
</svg>