<svg xmlns="http://www.w3.org/2000/svg" viewBox="0 0 24 24">
  <path d="M5 3C3.895 3 3 3.895 3 5L3 11C3 11.552 3.448 12 4 12C4.552 12 5 11.552 5 11L5 7L19.001953 7L19 19L16 19C15.448 19 15 19.448 15 20C15 20.552 15.448 21 16 21L19 21C20.105 21 21 20.105 21 19L21 5C21 3.895 20.105 3 19 3L5 3 z M 15 12C13.895 12 13 12.895 13 14C13 14.256123 13.051035 14.499581 13.138672 14.724609L11.298828 17.025391 A 2 2 0 0 0 11 17 A 2 2 0 0 0 10.482422 17.068359L8.9296875 15.515625 A 2 2 0 0 0 9 15 A 2 2 0 0 0 7 13 A 2 2 0 0 0 5 15 A 2 2 0 0 0 5.1386719 15.726562L2.21875 19.375 A 1.0004882 1.0004882 0 1 0 3.78125 20.625L6.7011719 16.974609 A 2 2 0 0 0 7 17 A 2 2 0 0 0 7.5175781 16.931641L9.0703125 18.484375 A 2 2 0 0 0 9 19 A 2 2 0 0 0 11 21 A 2 2 0 0 0 13 19 A 2 2 0 0 0 12.861328 18.273438L14.705078 15.970703C14.802248 15.985196 14.89878 16 15 16C16.105 16 17 15.105 17 14C17 12.895 16.105 12 15 12 z" fill="#FFFFFF" />
</svg>